<?xml version="1.0" encoding="utf-8"?>
<!-- Generator: Adobe Illustrator 24.3.0, SVG Export Plug-In . SVG Version: 6.00 Build 0)  -->
<svg version="1.1" xmlns="http://www.w3.org/2000/svg" xmlns:xlink="http://www.w3.org/1999/xlink" x="0px" y="0px"
	 viewBox="0 0 130.9 207.9" style="enable-background:new 0 0 130.9 207.9;" xml:space="preserve">
<style type="text/css">
	.st0{fill-rule:evenodd;clip-rule:evenodd;fill:#D3D3D3;}
	.st1{fill-rule:evenodd;clip-rule:evenodd;fill:#559FBF;}
	.st2{fill-rule:evenodd;clip-rule:evenodd;fill:#F6F6F8;}
</style>
<g id="Направляющие_для_монтажной_области">
</g>
<g id="Слой_1">
	<path class="st0" d="M28.8,29.7c9.6-9.6,22.9-15.5,37.5-15.5c14.6,0,27.9,5.9,37.5,15.5c9.6,9.6,15.5,22.9,15.5,37.5
		c0,14.6-5.9,27.9-15.5,37.5c-9.6,9.6-22.9,15.5-37.5,15.5l0,0c-5.7,0-10.8,2.3-14.5,6c-3.7,3.7-6,8.9-6,14.5h7.1
		c0-3.7,1.5-7.1,3.9-9.5c2.4-2.4,5.8-3.9,9.5-3.9c16.6,0,31.6-6.7,42.5-17.6c10.9-10.9,17.6-25.9,17.6-42.5
		c0-16.6-6.7-31.6-17.6-42.5C97.9,13.8,82.9,7,66.3,7c-16.6,0-31.6,6.7-42.5,17.6C12.8,35.5,6.1,50.6,6.1,67.2h7.1
		C13.2,52.5,19.2,39.3,28.8,29.7L28.8,29.7z M6.1,200.9v-60.1c0-16.6,6.7-31.6,17.6-42.5c10.9-10.9,25.9-17.6,42.5-17.6
		c3.7,0,7.1-1.5,9.5-3.9c2.4-2.4,3.9-5.8,3.9-9.5c0-3.7-1.5-7.1-3.9-9.5c-2.4-2.4-5.8-3.9-9.5-3.9c-3.7,0-7.1,1.5-9.5,3.9
		c-2.4,2.4-3.9,5.8-3.9,9.5h-7.1c0-5.7,2.3-10.8,6-14.5c3.7-3.7,8.9-6,14.5-6s10.8,2.3,14.5,6c3.7,3.7,6,8.9,6,14.5
		c0,5.7-2.3,10.8-6,14.5c-3.7,3.7-8.9,6-14.5,6l0,0c-14.6,0-27.9,5.9-37.5,15.5c-9.6,9.6-15.5,22.9-15.5,37.5v60.1H6.1L6.1,200.9z
		 M19.3,140.8c0-13,5.3-24.7,13.8-33.2c8.5-8.5,20.2-13.8,33.2-13.8c7.4,0,14-3,18.8-7.8c4.8-4.8,7.8-11.5,7.8-18.8
		c0-7.4-3-14-7.8-18.8c-4.8-4.8-11.5-7.8-18.8-7.8c-7.4,0-14,3-18.8,7.8c-4.8,4.8-7.8,11.5-7.8,18.8h-7.1c0-9.3,3.8-17.8,9.9-23.9
		c6.1-6.1,14.5-9.9,23.9-9.9s17.8,3.8,23.9,9.9c6.1,6.1,9.9,14.5,9.9,23.9c0,9.3-3.8,17.8-9.9,23.9c-6.1,6.1-14.5,9.9-23.9,9.9v0
		c-11,0-21,4.5-28.2,11.7c-7.2,7.2-11.7,17.2-11.7,28.2v60.1h-7.1V140.8L19.3,140.8z M32.5,140.8c0-9.3,3.8-17.8,9.9-23.9
		c6.1-6.1,14.5-9.9,23.9-9.9l0,0c11,0,21-4.5,28.2-11.7c7.2-7.2,11.7-17.2,11.7-28.2c0-11-4.5-21-11.7-28.2
		c-7.2-7.2-17.2-11.7-28.2-11.7c-11,0-21,4.5-28.2,11.7c-7.2,7.2-11.7,17.2-11.7,28.2h-7.1c0-13,5.3-24.7,13.8-33.2
		c8.5-8.5,20.2-13.8,33.2-13.8c13,0,24.7,5.3,33.2,13.8c8.5,8.5,13.8,20.2,13.8,33.2c0,13-5.3,24.7-13.8,33.2
		c-8.5,8.5-20.2,13.8-33.2,13.8c-7.4,0-14,3-18.8,7.8c-4.8,4.8-7.8,11.5-7.8,18.8v60.1h-7.1V140.8L32.5,140.8z M45.7,140.8v60.1h7.1
		h63v-7.1h-63v-53H45.7L45.7,140.8z M52.8,154.2v7.1h63v-7.1H52.8L52.8,154.2z M115.9,167.4h-63v7.1h63V167.4L115.9,167.4z
		 M115.9,180.6h-63v7.1h63V180.6z"/>
	<g>
		<path class="st1" d="M870.7,406.4c9.6-9.6,22.9-15.5,37.5-15.5c14.6,0,27.9,5.9,37.5,15.5c9.6,9.6,15.5,22.9,15.5,37.5
			c0,11.7-3.8,22.5-10.2,31.3c-0.1-0.1-0.2-0.2-0.3-0.3c-1.4-1.4-2.8-2.7-4.4-4l0.1,0.1c5.5-7.7,8.7-17.1,8.7-27.2
			c0-13-5.3-24.7-13.8-33.2c-8.5-8.5-20.2-13.8-33.2-13.8c-13,0-24.7,5.3-33.2,13.8c-8.5,8.5-13.8,20.2-13.8,33.2h7.1
			c0-11,4.5-21,11.7-28.2c7.2-7.2,17.2-11.7,28.2-11.7c11,0,21,4.5,28.2,11.7c7.2,7.2,11.7,17.2,11.7,28.2c0,8.6-2.7,16.5-7.3,23
			c-1.7-1.1-3.5-2.1-5.4-3.1l0.1,0c4.1-5.6,6.5-12.5,6.5-19.9c0-9.3-3.8-17.8-9.9-23.9c-6.1-6.1-14.5-9.9-23.9-9.9
			c-9.3,0-17.8,3.8-23.9,9.9c-6.1,6.1-9.9,14.5-9.9,23.9h7.1c0-7.4,3-14,7.8-18.8c4.8-4.8,11.5-7.8,18.8-7.8c7.4,0,14,3,18.8,7.8
			c4.8,4.8,7.8,11.5,7.8,18.8c0,6.5-2.3,12.4-6.1,17c2,0.7,3.9,1.5,5.7,2.4c-3.9-1.9-8-3.4-12.3-4.4l0.1,0c0.2-0.2,0.4-0.4,0.6-0.5
			c3.7-3.7,6-8.9,6-14.5c0-5.7-2.3-10.8-6-14.5c-3.7-3.7-8.9-6-14.5-6c-5.7,0-10.8,2.3-14.5,6c-3.7,3.7-6,8.9-6,14.5h7.1
			c0-3.7,1.5-7.1,3.9-9.5c2.4-2.4,5.8-3.9,9.5-3.9c3.7,0,7.1,1.5,9.5,3.9c2.4,2.4,3.9,5.8,3.9,9.5c0,3.7-1.5,7.1-3.9,9.5
			c-2.4,2.4-5.8,3.9-9.5,3.9h-40.8v7.1h40.8l0,0c14.6,0,27.9,5.9,37.5,15.5c9.6,9.6,15.5,22.9,15.5,37.5c0,14.6-5.9,27.9-15.5,37.5
			c-9.6,9.6-22.9,15.5-37.5,15.5c-14.6,0-27.9-5.9-37.5-15.5c-9.6-9.6-15.5-22.9-15.5-37.5h-7.1c0,16.6,6.7,31.6,17.6,42.5
			c10.9,10.9,25.9,17.6,42.5,17.6c16.6,0,31.6-6.7,42.5-17.6c10.9-10.9,17.6-25.9,17.6-42.5c0-13.9-4.7-26.7-12.6-36.9l0.1,0.1
			c7.9-10.2,12.6-22.9,12.6-36.8c0-16.6-6.7-31.6-17.6-42.5c-10.9-10.9-25.9-17.6-42.5-17.6c-16.6,0-31.6,6.7-42.5,17.6
			c-10.9,10.9-17.6,25.9-17.6,42.5h7.1C855.2,429.2,861.1,416,870.7,406.4L870.7,406.4z M908.2,457.3c0.3,0,0.5,0,0.8,0
			C908.7,457.3,908.5,457.3,908.2,457.3L908.2,457.3z M908.2,470.5c13,0,24.7,5.3,33.2,13.8c8.5,8.5,13.8,20.2,13.8,33.2
			c0,13-5.3,24.7-13.8,33.2c-8.5,8.5-20.2,13.8-33.2,13.8c-13,0-24.7-5.3-33.2-13.8c-8.5-8.5-13.8-20.2-13.8-33.2h7.1
			c0,11,4.5,21,11.7,28.2c7.2,7.2,17.2,11.7,28.2,11.7c11,0,21-4.5,28.2-11.7c7.2-7.2,11.7-17.2,11.7-28.2c0-11-4.5-21-11.7-28.2
			c-7.2-7.2-17.2-11.7-28.2-11.7v0h-40.8v-7.1H908.2L908.2,470.5z M908.2,483.7c9.3,0,17.8,3.8,23.9,9.9c6.1,6.1,9.9,14.5,9.9,23.9
			c0,9.3-3.8,17.8-9.9,23.9c-6.1,6.1-14.5,9.9-23.9,9.9c-9.3,0-17.8-3.8-23.9-9.9c-6.1-6.1-9.9-14.5-9.9-23.9h7.1
			c0,7.4,3,14,7.8,18.8c4.8,4.8,11.5,7.8,18.8,7.8c7.4,0,14-3,18.8-7.8c4.8-4.8,7.8-11.5,7.8-18.8c0-7.4-3-14-7.8-18.8
			c-4.8-4.8-11.5-7.8-18.8-7.8h-40.8v-7.1H908.2L908.2,483.7z M908.2,496.9c5.7,0,10.8,2.3,14.5,6c3.7,3.7,6,8.9,6,14.5
			c0,5.7-2.3,10.8-6,14.5c-3.7,3.7-8.9,6-14.5,6c-5.7,0-10.8-2.3-14.5-6c-3.7-3.7-6-8.9-6-14.5h7.1c0,3.7,1.5,7.1,3.9,9.5
			c2.4,2.4,5.8,3.9,9.5,3.9c3.7,0,7.1-1.5,9.5-3.9c2.4-2.4,3.9-5.8,3.9-9.5c0-3.7-1.5-7.1-3.9-9.5c-2.4-2.4-5.8-3.9-9.5-3.9h-40.8
			v-7.1H908.2L908.2,496.9z M934.4,463.3c0.1,0.1,0.3,0.1,0.4,0.2L934.4,463.3L934.4,463.3z M934.9,463.6c0.1,0.1,0.3,0.1,0.4,0.2
			C935.2,463.7,935.1,463.6,934.9,463.6L934.9,463.6z M909,457.3c0.3,0,0.5,0,0.8,0C909.5,457.3,909.3,457.3,909,457.3L909,457.3z
			 M909.8,457.3c0.2,0,0.5,0,0.7,0C910.3,457.4,910,457.4,909.8,457.3L909.8,457.3z M910.6,457.4c0.2,0,0.5,0,0.7,0
			C911,457.4,910.8,457.4,910.6,457.4L910.6,457.4z M911.4,457.4c0.2,0,0.5,0,0.7,0C911.8,457.4,911.6,457.4,911.4,457.4
			L911.4,457.4z M912.1,457.5c0.2,0,0.4,0,0.7,0C912.6,457.5,912.4,457.5,912.1,457.5L912.1,457.5z M912.9,457.5
			c0.2,0,0.4,0,0.7,0.1C913.3,457.5,913.1,457.5,912.9,457.5L912.9,457.5z M913.7,457.6c0.2,0,0.4,0,0.6,0.1
			C914.1,457.6,913.9,457.6,913.7,457.6L913.7,457.6z M914.4,457.6c0.2,0,0.4,0,0.6,0.1C914.8,457.7,914.6,457.7,914.4,457.6
			L914.4,457.6z M915.2,457.7c0.2,0,0.4,0,0.6,0.1C915.6,457.8,915.4,457.8,915.2,457.7L915.2,457.7z M916,457.8
			c0.2,0,0.3,0,0.5,0.1C916.3,457.9,916.2,457.8,916,457.8L916,457.8z M916.8,457.9c0.2,0,0.3,0,0.5,0.1
			C917.1,458,916.9,458,916.8,457.9L916.8,457.9z M917.5,458c0.2,0,0.3,0,0.5,0.1C917.8,458.1,917.7,458.1,917.5,458L917.5,458z
			 M918.3,458.2c0.1,0,0.3,0,0.4,0.1c0.1,0,0.2,0,0.4,0.1l-0.4-0.1C918.6,458.2,918.4,458.2,918.3,458.2L918.3,458.2z M919.1,458.3
			c0.1,0,0.3,0,0.4,0.1l0.3,0.1l0.3,0.1L919.1,458.3z"/>
	</g>
	<path class="st0" d="M394.1,36.7c9.6-9.6,22.9-15.5,37.5-15.5v6.1c-13,0-24.7,5.3-33.2,13.8c-8.5,8.5-13.8,20.2-13.8,33.2h7.1
		c0-11,4.5-21,11.7-28.2c7.2-7.2,17.2-11.7,28.2-11.7v6.1c-9.3,0-17.8,3.8-23.9,9.9c-6.1,6.1-9.9,14.5-9.9,23.9h7.1
		c0-7.4,3-14,7.8-18.8c4.8-4.8,11.5-7.8,18.8-7.8v6.1c-5.7,0-10.8,2.3-14.5,6c-3.7,3.7-6,8.9-6,14.5h7.1c0-3.7,1.5-7.1,3.9-9.5
		c2.4-2.4,5.8-3.9,9.5-3.9v147.2h7.1V14.1h-7.1c-16.6,0-31.6,6.7-42.5,17.6c-10.9,10.9-17.6,25.9-17.6,42.5h7.1
		C378.6,59.6,384.5,46.3,394.1,36.7L394.1,36.7z M444.8,14.1v193.9h7.1V14.1H444.8L444.8,14.1z M458,14.1v193.9h7.1V14.1H458
		L458,14.1z M471.2,14.1v193.9h7.1V14.1H471.2z"/>
	<path class="st2" d="M1098.3,229.7H979.1v7.1h119.2V229.7L1098.3,229.7z M1051.6,341h7.1v-77.8h6.1V341h7.1v-77.8h6.1V341h7.1
		v-77.8h6.1V341h7.1v-77.8v-7.1H979.1v7.1h72.5V341L1051.6,341z M1058.7,216.5v-39.4v-5.8h-7.1v45.2h-25.8v-32.4v-37h-7.1v32.1v37.2
		h-6.1v-42.2v-27.2h-7.1v21.4v47.9h-6.1v-52.9v-16.5h-7.1v10.7v58.6h-6.1v-63.6v-5.8h-7.1v69.3l0,0v7.1h119.2v-7.1v-8.2v-37h-7.1
		v32.1v13.1h-6.1v-18v-27.2h-7.1v21.4v23.8h-6.1v-28.7v-16.5h-7.1V182v34.5H1058.7L1058.7,216.5z M1098.3,242.9H979.1v7.1h119.2
		V242.9z"/>
</g>
</svg>
