<?xml version="1.0" encoding="utf-8"?>
<!-- Generator: Adobe Illustrator 24.3.0, SVG Export Plug-In . SVG Version: 6.00 Build 0)  -->
<svg version="1.1" xmlns="http://www.w3.org/2000/svg" xmlns:xlink="http://www.w3.org/1999/xlink" x="0px" y="0px"
	 viewBox="0 0 130.9 207.9" style="enable-background:new 0 0 130.9 207.9;" xml:space="preserve">
<style type="text/css">
	.st0{fill-rule:evenodd;clip-rule:evenodd;fill:#D3D3D3;}
	.st1{fill-rule:evenodd;clip-rule:evenodd;fill:#F6F6F8;}
</style>
<g id="Направляющие_для_монтажной_области">
</g>
<g id="Слой_1">
	<path class="st0" d="M558.3,246.3c9.6-9.6,22.9-15.5,37.5-15.5c14.6,0,27.9,5.9,37.5,15.5c9.6,9.6,15.5,22.9,15.5,37.5
		c0,14.6-5.9,27.9-15.5,37.5c-9.6,9.6-22.9,15.5-37.5,15.5l0,0c-5.7,0-10.8,2.3-14.5,6c-3.7,3.7-6,8.9-6,14.5h7.1
		c0-3.7,1.5-7.1,3.9-9.5c2.4-2.4,5.8-3.9,9.5-3.9c16.6,0,31.6-6.7,42.5-17.6c10.9-10.9,17.6-25.9,17.6-42.5
		c0-16.6-6.7-31.6-17.6-42.5c-10.9-10.9-25.9-17.6-42.5-17.6c-16.6,0-31.6,6.7-42.5,17.6c-10.9,10.9-17.6,25.9-17.6,42.5h7.1
		C542.7,269.1,548.7,255.9,558.3,246.3L558.3,246.3z M535.6,417.5v-60.1c0-16.6,6.7-31.6,17.6-42.5c10.9-10.9,25.9-17.6,42.5-17.6
		c3.7,0,7.1-1.5,9.5-3.9c2.4-2.4,3.9-5.8,3.9-9.5s-1.5-7.1-3.9-9.5c-2.4-2.4-5.8-3.9-9.5-3.9c-3.7,0-7.1,1.5-9.5,3.9
		c-2.4,2.4-3.9,5.8-3.9,9.5h-7.1c0-5.7,2.3-10.8,6-14.5c3.7-3.7,8.9-6,14.5-6s10.8,2.3,14.5,6c3.7,3.7,6,8.9,6,14.5
		c0,5.7-2.3,10.8-6,14.5c-3.7,3.7-8.9,6-14.5,6l0,0c-14.6,0-27.9,5.9-37.5,15.5c-9.6,9.6-15.5,22.9-15.5,37.5v60.1H535.6
		L535.6,417.5z M548.8,357.3c0-13,5.3-24.7,13.8-33.2c8.5-8.5,20.2-13.8,33.2-13.8c7.4,0,14-3,18.8-7.8c4.8-4.8,7.8-11.5,7.8-18.8
		c0-7.4-3-14-7.8-18.8c-4.8-4.8-11.5-7.8-18.8-7.8c-7.4,0-14,3-18.8,7.8c-4.8,4.8-7.8,11.5-7.8,18.8H562c0-9.3,3.8-17.8,9.9-23.9
		c6.1-6.1,14.5-9.9,23.9-9.9s17.8,3.8,23.9,9.9c6.1,6.1,9.9,14.5,9.9,23.9c0,9.3-3.8,17.8-9.9,23.9c-6.1,6.1-14.5,9.9-23.9,9.9v0
		c-11,0-21,4.5-28.2,11.7c-7.2,7.2-11.7,17.2-11.7,28.2v60.1h-7.1V357.3L548.8,357.3z M562,357.3c0-9.3,3.8-17.8,9.9-23.9
		c6.1-6.1,14.5-9.9,23.9-9.9l0,0c11,0,21-4.5,28.2-11.7s11.7-17.2,11.7-28.2c0-11-4.5-21-11.7-28.2c-7.2-7.2-17.2-11.7-28.2-11.7
		c-11,0-21,4.5-28.2,11.7c-7.2,7.2-11.7,17.2-11.7,28.2h-7.1c0-13,5.3-24.7,13.8-33.2c8.5-8.5,20.2-13.8,33.2-13.8
		c13,0,24.7,5.3,33.2,13.8c8.5,8.5,13.8,20.2,13.8,33.2c0,13-5.3,24.7-13.8,33.2c-8.5,8.5-20.2,13.8-33.2,13.8c-7.4,0-14,3-18.8,7.8
		c-4.8,4.8-7.8,11.5-7.8,18.8v60.1H562V357.3L562,357.3z M575.2,357.3v60.1h7.1h63v-7.1h-63v-53H575.2L575.2,357.3z M582.4,370.8
		v7.1h63v-7.1H582.4L582.4,370.8z M645.4,384h-63v7.1h63V384L645.4,384z M645.4,397.2h-63v7.1h63V397.2z"/>
	<g>
		<path class="st0" d="M29,29.7c9.6-9.6,22.9-15.5,37.5-15.5c14.6,0,27.9,5.9,37.5,15.5c9.6,9.6,15.5,22.9,15.5,37.5
			c0,11.7-3.8,22.5-10.2,31.3c-0.1-0.1-0.2-0.2-0.3-0.3c-1.4-1.4-2.8-2.7-4.4-4l0.1,0.1c5.5-7.7,8.7-17.1,8.7-27.2
			c0-13-5.3-24.7-13.8-33.2c-8.5-8.5-20.2-13.8-33.2-13.8c-13,0-24.7,5.3-33.2,13.8c-8.5,8.5-13.8,20.2-13.8,33.2h7.1
			c0-11,4.5-21,11.7-28.2c7.2-7.2,17.2-11.7,28.2-11.7c11,0,21,4.5,28.2,11.7c7.2,7.2,11.7,17.2,11.7,28.2c0,8.6-2.7,16.5-7.3,23
			c-1.7-1.1-3.5-2.1-5.4-3.1l0.1,0c4.1-5.6,6.5-12.5,6.5-19.9c0-9.3-3.8-17.8-9.9-23.9c-6.1-6.1-14.5-9.9-23.9-9.9
			c-9.3,0-17.8,3.8-23.9,9.9c-6.1,6.1-9.9,14.5-9.9,23.9h7.1c0-7.4,3-14,7.8-18.8c4.8-4.8,11.5-7.8,18.8-7.8c7.4,0,14,3,18.8,7.8
			c4.8,4.8,7.8,11.5,7.8,18.8c0,6.5-2.3,12.4-6.1,17c2,0.7,3.9,1.5,5.7,2.4c-3.9-1.9-8-3.4-12.3-4.4l0.1,0c0.2-0.2,0.4-0.4,0.6-0.5
			c3.7-3.7,6-8.9,6-14.5c0-5.7-2.3-10.8-6-14.5c-3.7-3.7-8.9-6-14.5-6c-5.7,0-10.8,2.3-14.5,6c-3.7,3.7-6,8.9-6,14.5H53
			c0-3.7,1.5-7.1,3.9-9.5c2.4-2.4,5.8-3.9,9.5-3.9c3.7,0,7.1,1.5,9.5,3.9c2.4,2.4,3.9,5.8,3.9,9.5c0,3.7-1.5,7.1-3.9,9.5
			c-2.4,2.4-5.8,3.9-9.5,3.9H25.7v7.1h40.8l0,0c14.6,0,27.9,5.9,37.5,15.5c9.6,9.6,15.5,22.9,15.5,37.5c0,14.6-5.9,27.9-15.5,37.5
			c-9.6,9.6-22.9,15.5-37.5,15.5c-14.6,0-27.9-5.9-37.5-15.5c-9.6-9.6-15.5-22.9-15.5-37.5H6.3c0,16.6,6.7,31.6,17.6,42.5
			c10.9,10.9,25.9,17.6,42.5,17.6s31.6-6.7,42.5-17.6c10.9-10.9,17.6-25.9,17.6-42.5c0-13.9-4.7-26.7-12.6-36.9l0.1,0.1
			c7.9-10.2,12.6-22.9,12.6-36.8c0-16.6-6.7-31.6-17.6-42.5C98.1,13.8,83.1,7.1,66.5,7.1s-31.6,6.7-42.5,17.6
			C13.1,35.6,6.3,50.6,6.3,67.2h7.1C13.4,52.6,19.4,39.3,29,29.7L29,29.7z M66.5,80.7c0.3,0,0.5,0,0.8,0
			C67,80.7,66.7,80.7,66.5,80.7L66.5,80.7z M66.5,93.9c13,0,24.7,5.3,33.2,13.8c8.5,8.5,13.8,20.2,13.8,33.2
			c0,13-5.3,24.7-13.8,33.2c-8.5,8.5-20.2,13.8-33.2,13.8c-13,0-24.7-5.3-33.2-13.8c-8.5-8.5-13.8-20.2-13.8-33.2h7.1
			c0,11,4.5,21,11.7,28.2c7.2,7.2,17.2,11.7,28.2,11.7c11,0,21-4.5,28.2-11.7c7.2-7.2,11.7-17.2,11.7-28.2c0-11-4.5-21-11.7-28.2
			S77.5,101,66.5,101v0H25.7v-7.1H66.5L66.5,93.9z M66.5,107.1c9.3,0,17.8,3.8,23.9,9.9c6.1,6.1,9.9,14.5,9.9,23.9
			c0,9.3-3.8,17.8-9.9,23.9c-6.1,6.1-14.5,9.9-23.9,9.9c-9.3,0-17.8-3.8-23.9-9.9c-6.1-6.1-9.9-14.5-9.9-23.9h7.1
			c0,7.4,3,14,7.8,18.8c4.8,4.8,11.5,7.8,18.8,7.8c7.4,0,14-3,18.8-7.8c4.8-4.8,7.8-11.5,7.8-18.8c0-7.4-3-14-7.8-18.8
			c-4.8-4.8-11.5-7.8-18.8-7.8H25.7v-7.1H66.5L66.5,107.1z M66.5,120.3c5.7,0,10.8,2.3,14.5,6c3.7,3.7,6,8.9,6,14.5
			c0,5.7-2.3,10.8-6,14.5c-3.7,3.7-8.9,6-14.5,6c-5.7,0-10.8-2.3-14.5-6c-3.7-3.7-6-8.9-6-14.5H53c0,3.7,1.5,7.1,3.9,9.5
			c2.4,2.4,5.8,3.9,9.5,3.9c3.7,0,7.1-1.5,9.5-3.9c2.4-2.4,3.9-5.8,3.9-9.5c0-3.7-1.5-7.1-3.9-9.5c-2.4-2.4-5.8-3.9-9.5-3.9H25.7
			v-7.1H66.5L66.5,120.3z M92.7,86.7c0.1,0.1,0.3,0.1,0.4,0.2L92.7,86.7L92.7,86.7z M93.2,86.9c0.1,0.1,0.3,0.1,0.4,0.2
			C93.5,87,93.3,87,93.2,86.9L93.2,86.9z M67.3,80.7c0.3,0,0.5,0,0.8,0C67.8,80.7,67.5,80.7,67.3,80.7L67.3,80.7z M68,80.7
			c0.2,0,0.5,0,0.7,0C68.5,80.7,68.3,80.7,68,80.7L68,80.7z M68.8,80.7c0.2,0,0.5,0,0.7,0C69.3,80.7,69.1,80.7,68.8,80.7L68.8,80.7z
			 M69.6,80.7c0.2,0,0.5,0,0.7,0C70.1,80.8,69.8,80.7,69.6,80.7L69.6,80.7z M70.4,80.8c0.2,0,0.4,0,0.7,0
			C70.8,80.8,70.6,80.8,70.4,80.8L70.4,80.8z M71.1,80.8c0.2,0,0.4,0,0.7,0.1C71.6,80.9,71.4,80.8,71.1,80.8L71.1,80.8z M71.9,80.9
			c0.2,0,0.4,0,0.6,0.1C72.3,80.9,72.1,80.9,71.9,80.9L71.9,80.9z M72.7,81c0.2,0,0.4,0,0.6,0.1C73.1,81,72.9,81,72.7,81L72.7,81z
			 M73.5,81.1c0.2,0,0.4,0,0.6,0.1C73.8,81.1,73.7,81.1,73.5,81.1L73.5,81.1z M74.2,81.1c0.2,0,0.3,0,0.5,0.1
			C74.6,81.2,74.4,81.2,74.2,81.1L74.2,81.1z M75,81.3c0.2,0,0.3,0,0.5,0.1C75.3,81.3,75.2,81.3,75,81.3L75,81.3z M75.8,81.4
			c0.2,0,0.3,0,0.5,0.1C76.1,81.4,75.9,81.4,75.8,81.4L75.8,81.4z M76.5,81.5c0.1,0,0.3,0,0.4,0.1c0.1,0,0.2,0,0.4,0.1L77,81.6
			C76.8,81.5,76.7,81.5,76.5,81.5L76.5,81.5z M77.3,81.6c0.1,0,0.3,0,0.4,0.1l0.3,0.1l0.3,0.1L77.3,81.6z"/>
	</g>
	<path class="st0" d="M394.1,36.7c9.6-9.6,22.9-15.5,37.5-15.5v6.1c-13,0-24.7,5.3-33.2,13.8c-8.5,8.5-13.8,20.2-13.8,33.2h7.1
		c0-11,4.5-21,11.7-28.2c7.2-7.2,17.2-11.7,28.2-11.7v6.1c-9.3,0-17.8,3.8-23.9,9.9c-6.1,6.1-9.9,14.5-9.9,23.9h7.1
		c0-7.4,3-14,7.8-18.8c4.8-4.8,11.5-7.8,18.8-7.8v6.1c-5.7,0-10.8,2.3-14.5,6c-3.7,3.7-6,8.9-6,14.5h7.1c0-3.7,1.5-7.1,3.9-9.5
		c2.4-2.4,5.8-3.9,9.5-3.9v147.2h7.1V14.1h-7.1c-16.6,0-31.6,6.7-42.5,17.6c-10.9,10.9-17.6,25.9-17.6,42.5h7.1
		C378.6,59.6,384.5,46.3,394.1,36.7L394.1,36.7z M444.8,14.1v193.9h7.1V14.1H444.8L444.8,14.1z M458,14.1v193.9h7.1V14.1H458
		L458,14.1z M471.2,14.1v193.9h7.1V14.1H471.2z"/>
	<path class="st1" d="M1098.3,229.7H979.1v7.1h119.2V229.7L1098.3,229.7z M1051.6,341h7.1v-77.8h6.1V341h7.1v-77.8h6.1V341h7.1
		v-77.8h6.1V341h7.1v-77.8v-7.1H979.1v7.1h72.5V341L1051.6,341z M1058.7,216.5v-39.4v-5.8h-7.1v45.2h-25.8v-32.4v-37h-7.1v32.1v37.2
		h-6.1v-42.2v-27.2h-7.1v21.4v47.9h-6.1v-52.9v-16.5h-7.1v10.7v58.6h-6.1v-63.6v-5.8h-7.1v69.3l0,0v7.1h119.2v-7.1v-8.2v-37h-7.1
		v32.1v13.1h-6.1v-18v-27.2h-7.1v21.4v23.8h-6.1v-28.7v-16.5h-7.1V182v34.5H1058.7L1058.7,216.5z M1098.3,242.9H979.1v7.1h119.2
		V242.9z"/>
</g>
</svg>
