<?xml version="1.0" encoding="utf-8"?>
<!-- Generator: Adobe Illustrator 24.3.0, SVG Export Plug-In . SVG Version: 6.00 Build 0)  -->
<svg version="1.1" xmlns="http://www.w3.org/2000/svg" xmlns:xlink="http://www.w3.org/1999/xlink" x="0px" y="0px"
	 viewBox="0 0 130.9 207.9" style="enable-background:new 0 0 130.9 207.9;" xml:space="preserve">
<style type="text/css">
	.st0{fill-rule:evenodd;clip-rule:evenodd;fill:#D3D3D3;}
</style>
<g id="Направляющие_для_монтажной_области">
</g>
<g id="Слой_1">
	<path class="st0" d="M558.3,246.3c9.6-9.6,22.9-15.5,37.5-15.5c14.6,0,27.9,5.9,37.5,15.5c9.6,9.6,15.5,22.9,15.5,37.5
		c0,14.6-5.9,27.9-15.5,37.5c-9.6,9.6-22.9,15.5-37.5,15.5l0,0c-5.7,0-10.8,2.3-14.5,6c-3.7,3.7-6,8.9-6,14.5h7.1
		c0-3.7,1.5-7.1,3.9-9.5c2.4-2.4,5.8-3.9,9.5-3.9c16.6,0,31.6-6.7,42.5-17.6c10.9-10.9,17.6-25.9,17.6-42.5
		c0-16.6-6.7-31.6-17.6-42.5c-10.9-10.9-25.9-17.6-42.5-17.6c-16.6,0-31.6,6.7-42.5,17.6c-10.9,10.9-17.6,25.9-17.6,42.5h7.1
		C542.7,269.1,548.7,255.9,558.3,246.3L558.3,246.3z M535.6,417.5v-60.1c0-16.6,6.7-31.6,17.6-42.5c10.9-10.9,25.9-17.6,42.5-17.6
		c3.7,0,7.1-1.5,9.5-3.9c2.4-2.4,3.9-5.8,3.9-9.5s-1.5-7.1-3.9-9.5c-2.4-2.4-5.8-3.9-9.5-3.9c-3.7,0-7.1,1.5-9.5,3.9
		c-2.4,2.4-3.9,5.8-3.9,9.5h-7.1c0-5.7,2.3-10.8,6-14.5c3.7-3.7,8.9-6,14.5-6s10.8,2.3,14.5,6c3.7,3.7,6,8.9,6,14.5
		c0,5.7-2.3,10.8-6,14.5c-3.7,3.7-8.9,6-14.5,6l0,0c-14.6,0-27.9,5.9-37.5,15.5c-9.6,9.6-15.5,22.9-15.5,37.5v60.1H535.6
		L535.6,417.5z M548.8,357.3c0-13,5.3-24.7,13.8-33.2c8.5-8.5,20.2-13.8,33.2-13.8c7.4,0,14-3,18.8-7.8c4.8-4.8,7.8-11.5,7.8-18.8
		c0-7.4-3-14-7.8-18.8c-4.8-4.8-11.5-7.8-18.8-7.8c-7.4,0-14,3-18.8,7.8c-4.8,4.8-7.8,11.5-7.8,18.8H562c0-9.3,3.8-17.8,9.9-23.9
		c6.1-6.1,14.5-9.9,23.9-9.9s17.8,3.8,23.9,9.9c6.1,6.1,9.9,14.5,9.9,23.9c0,9.3-3.8,17.8-9.9,23.9c-6.1,6.1-14.5,9.9-23.9,9.9v0
		c-11,0-21,4.5-28.2,11.7c-7.2,7.2-11.7,17.2-11.7,28.2v60.1h-7.1V357.3L548.8,357.3z M562,357.3c0-9.3,3.8-17.8,9.9-23.9
		c6.1-6.1,14.5-9.9,23.9-9.9l0,0c11,0,21-4.5,28.2-11.7s11.7-17.2,11.7-28.2c0-11-4.5-21-11.7-28.2c-7.2-7.2-17.2-11.7-28.2-11.7
		c-11,0-21,4.5-28.2,11.7c-7.2,7.2-11.7,17.2-11.7,28.2h-7.1c0-13,5.3-24.7,13.8-33.2c8.5-8.5,20.2-13.8,33.2-13.8
		c13,0,24.7,5.3,33.2,13.8c8.5,8.5,13.8,20.2,13.8,33.2c0,13-5.3,24.7-13.8,33.2c-8.5,8.5-20.2,13.8-33.2,13.8c-7.4,0-14,3-18.8,7.8
		c-4.8,4.8-7.8,11.5-7.8,18.8v60.1H562V357.3L562,357.3z M575.2,357.3v60.1h7.1h63v-7.1h-63v-53H575.2L575.2,357.3z M582.4,370.8
		v7.1h63v-7.1H582.4L582.4,370.8z M645.4,384h-63v7.1h63V384L645.4,384z M645.4,397.2h-63v7.1h63V397.2z"/>
	<g>
		<path class="st0" d="M786.4-16.4c9.6-9.6,22.9-15.5,37.5-15.5c14.6,0,27.9,5.9,37.5,15.5C871-6.8,877,6.5,877,21.1
			c0,11.7-3.8,22.5-10.2,31.3c-0.1-0.1-0.2-0.2-0.3-0.3c-1.4-1.4-2.8-2.7-4.4-4l0.1,0.1c5.5-7.7,8.7-17.1,8.7-27.2
			c0-13-5.3-24.7-13.8-33.2c-8.5-8.5-20.2-13.8-33.2-13.8c-13,0-24.7,5.3-33.2,13.8C782.2-3.6,777,8.2,777,21.1h7.1
			c0-11,4.5-21,11.7-28.2c7.2-7.2,17.2-11.7,28.2-11.7c11,0,21,4.5,28.2,11.7c7.2,7.2,11.7,17.2,11.7,28.2c0,8.6-2.7,16.5-7.3,23
			c-1.7-1.1-3.5-2.1-5.4-3.1l0.1,0c4.1-5.6,6.5-12.5,6.5-19.9c0-9.3-3.8-17.8-9.9-23.9c-6.1-6.1-14.5-9.9-23.9-9.9
			c-9.3,0-17.8,3.8-23.9,9.9c-6.1,6.1-9.9,14.5-9.9,23.9h7.1c0-7.4,3-14,7.8-18.8c4.8-4.8,11.5-7.8,18.8-7.8c7.4,0,14,3,18.8,7.8
			c4.8,4.8,7.8,11.5,7.8,18.8c0,6.5-2.3,12.4-6.1,17c2,0.7,3.9,1.5,5.7,2.4c-3.9-1.9-8-3.4-12.3-4.4l0.1,0c0.2-0.2,0.4-0.4,0.6-0.5
			c3.7-3.7,6-8.9,6-14.5c0-5.7-2.3-10.8-6-14.5c-3.7-3.7-8.9-6-14.5-6c-5.7,0-10.8,2.3-14.5,6c-3.7,3.7-6,8.9-6,14.5h7.1
			c0-3.7,1.5-7.1,3.9-9.5c2.4-2.4,5.8-3.9,9.5-3.9c3.7,0,7.1,1.5,9.5,3.9c2.4,2.4,3.9,5.8,3.9,9.5s-1.5,7.1-3.9,9.5
			c-2.4,2.4-5.8,3.9-9.5,3.9h-40.8v7.1h40.8l0,0c14.6,0,27.9,5.9,37.5,15.5C871,66.8,877,80.1,877,94.7c0,14.6-5.9,27.9-15.5,37.5
			c-9.6,9.6-22.9,15.5-37.5,15.5c-14.6,0-27.9-5.9-37.5-15.5c-9.6-9.6-15.5-22.9-15.5-37.5h-7.1c0,16.6,6.7,31.6,17.6,42.5
			c10.9,10.9,25.9,17.6,42.5,17.6c16.6,0,31.6-6.7,42.5-17.6c10.9-10.9,17.6-25.9,17.6-42.5c0-13.9-4.7-26.7-12.6-36.9l0.1,0.1
			c7.9-10.2,12.6-22.9,12.6-36.8c0-16.6-6.7-31.6-17.6-42.5C855.6-32.3,840.5-39,823.9-39c-16.6,0-31.6,6.7-42.5,17.6
			c-10.9,10.9-17.6,25.9-17.6,42.5h7.1C770.9,6.5,776.8-6.8,786.4-16.4L786.4-16.4z M823.9,34.6c0.3,0,0.5,0,0.8,0
			C824.5,34.6,824.2,34.6,823.9,34.6L823.9,34.6z M823.9,47.8c13,0,24.7,5.3,33.2,13.8c8.5,8.5,13.8,20.2,13.8,33.2
			c0,13-5.3,24.7-13.8,33.2c-8.5,8.5-20.2,13.8-33.2,13.8c-13,0-24.7-5.3-33.2-13.8c-8.5-8.5-13.8-20.2-13.8-33.2h7.1
			c0,11,4.5,21,11.7,28.2c7.2,7.2,17.2,11.7,28.2,11.7c11,0,21-4.5,28.2-11.7c7.2-7.2,11.7-17.2,11.7-28.2c0-11-4.5-21-11.7-28.2
			c-7.2-7.2-17.2-11.7-28.2-11.7v0h-40.8v-7.1H823.9L823.9,47.8z M823.9,61c9.3,0,17.8,3.8,23.9,9.9c6.1,6.1,9.9,14.5,9.9,23.9
			c0,9.3-3.8,17.8-9.9,23.9c-6.1,6.1-14.5,9.9-23.9,9.9c-9.3,0-17.8-3.8-23.9-9.9c-6.1-6.1-9.9-14.5-9.9-23.9h7.1
			c0,7.4,3,14,7.8,18.8c4.8,4.8,11.5,7.8,18.8,7.8c7.4,0,14-3,18.8-7.8c4.8-4.8,7.8-11.5,7.8-18.8c0-7.4-3-14-7.8-18.8
			c-4.8-4.8-11.5-7.8-18.8-7.8h-40.8V61H823.9L823.9,61z M823.9,74.2c5.7,0,10.8,2.3,14.5,6c3.7,3.7,6,8.9,6,14.5
			c0,5.7-2.3,10.8-6,14.5c-3.7,3.7-8.9,6-14.5,6c-5.7,0-10.8-2.3-14.5-6c-3.7-3.7-6-8.9-6-14.5h7.1c0,3.7,1.5,7.1,3.9,9.5
			c2.4,2.4,5.8,3.9,9.5,3.9c3.7,0,7.1-1.5,9.5-3.9c2.4-2.4,3.9-5.8,3.9-9.5c0-3.7-1.5-7.1-3.9-9.5c-2.4-2.4-5.8-3.9-9.5-3.9h-40.8
			v-7.1H823.9L823.9,74.2z M850.2,40.6c0.1,0.1,0.3,0.1,0.4,0.2L850.2,40.6L850.2,40.6z M850.7,40.8c0.1,0.1,0.3,0.1,0.4,0.2
			C850.9,40.9,850.8,40.9,850.7,40.8L850.7,40.8z M824.7,34.6c0.3,0,0.5,0,0.8,0C825.2,34.6,825,34.6,824.7,34.6L824.7,34.6z
			 M825.5,34.6c0.2,0,0.5,0,0.7,0C826,34.6,825.8,34.6,825.5,34.6L825.5,34.6z M826.3,34.6c0.2,0,0.5,0,0.7,0
			C826.8,34.6,826.5,34.6,826.3,34.6L826.3,34.6z M827.1,34.6c0.2,0,0.5,0,0.7,0C827.5,34.7,827.3,34.6,827.1,34.6L827.1,34.6z
			 M827.9,34.7c0.2,0,0.4,0,0.7,0C828.3,34.7,828.1,34.7,827.9,34.7L827.9,34.7z M828.6,34.7c0.2,0,0.4,0,0.7,0.1
			C829.1,34.8,828.8,34.7,828.6,34.7L828.6,34.7z M829.4,34.8c0.2,0,0.4,0,0.6,0.1C829.8,34.8,829.6,34.8,829.4,34.8L829.4,34.8z
			 M830.2,34.9c0.2,0,0.4,0,0.6,0.1C830.6,34.9,830.4,34.9,830.2,34.9L830.2,34.9z M830.9,35c0.2,0,0.4,0,0.6,0.1
			C831.3,35,831.1,35,830.9,35L830.9,35z M831.7,35c0.2,0,0.3,0,0.5,0.1C832,35.1,831.9,35.1,831.7,35L831.7,35z M832.5,35.2
			c0.2,0,0.3,0,0.5,0.1C832.8,35.2,832.6,35.2,832.5,35.2L832.5,35.2z M833.2,35.3c0.2,0,0.3,0,0.5,0.1
			C833.5,35.3,833.4,35.3,833.2,35.3L833.2,35.3z M834,35.4c0.1,0,0.3,0,0.4,0.1c0.1,0,0.2,0,0.4,0.1l-0.4-0.1
			C834.3,35.4,834.1,35.4,834,35.4L834,35.4z M834.8,35.5c0.1,0,0.3,0,0.4,0.1l0.3,0.1l0.3,0.1L834.8,35.5z"/>
	</g>
	<path class="st0" d="M394.1,36.7c9.6-9.6,22.9-15.5,37.5-15.5v6.1c-13,0-24.7,5.3-33.2,13.8c-8.5,8.5-13.8,20.2-13.8,33.2h7.1
		c0-11,4.5-21,11.7-28.2c7.2-7.2,17.2-11.7,28.2-11.7v6.1c-9.3,0-17.8,3.8-23.9,9.9c-6.1,6.1-9.9,14.5-9.9,23.9h7.1
		c0-7.4,3-14,7.8-18.8c4.8-4.8,11.5-7.8,18.8-7.8v6.1c-5.7,0-10.8,2.3-14.5,6c-3.7,3.7-6,8.9-6,14.5h7.1c0-3.7,1.5-7.1,3.9-9.5
		c2.4-2.4,5.8-3.9,9.5-3.9v147.2h7.1V14.1h-7.1c-16.6,0-31.6,6.7-42.5,17.6c-10.9,10.9-17.6,25.9-17.6,42.5h7.1
		C378.6,59.6,384.5,46.3,394.1,36.7L394.1,36.7z M444.8,14.1v193.9h7.1V14.1H444.8L444.8,14.1z M458,14.1v193.9h7.1V14.1H458
		L458,14.1z M471.2,14.1v193.9h7.1V14.1H471.2z"/>
	<path class="st0" d="M125.1,89.8H5.9V97h119.2V89.8L125.1,89.8z M78.4,201.2h7.1v-77.8h6.1v77.8h7.1v-77.8h6.1v77.8h7.1v-77.8h6.1
		v77.8h7.1v-77.8v-7.1H5.9v7.1h72.5V201.2L78.4,201.2z M85.5,76.6V37.2v-5.8h-7.1v45.2H52.6V44.3v-37h-7.1v32.1v37.2h-6.1V34.5V7.3
		h-7.1v21.4v47.9h-6.1V23.8V7.3h-7.1V18v58.6H13V13.1V7.3H5.9v69.3l0,0v7.1h119.2v-7.1v-8.2v-37H118v32.1v13.1h-6.1v-18V31.4h-7.1
		v21.4v23.8h-6.1V47.9V31.4h-7.1v10.7v34.5H85.5L85.5,76.6z M125.1,103H5.9v7.1h119.2V103z"/>
</g>
</svg>
