<?xml version="1.0" encoding="utf-8"?>
<!-- Generator: Adobe Illustrator 24.3.0, SVG Export Plug-In . SVG Version: 6.00 Build 0)  -->
<svg version="1.1" xmlns="http://www.w3.org/2000/svg" xmlns:xlink="http://www.w3.org/1999/xlink" x="0px" y="0px"
	 viewBox="0 0 569 173" style="enable-background:new 0 0 569 173;" xml:space="preserve">
<g id="Background">
</g>
<g id="Objects">
	<path d="M11.6,114.1c16.8-15,39-32.3,67-48.5c40.1-23.2,82.1-38.7,124.8-45.9c50.2-8.4,100.3-5.2,149,9.8
		c51.8,15.9,102.2,45.1,150,86.9l-33.2,14.9l98.2,35.7l-43-95.3l-12.5,34.8c-49.5-43.3-101.7-73.6-155.5-90.1
		c-50.7-15.6-103-19-155.3-10.2c-44.4,7.5-87.9,23.5-129.4,47.5C42.8,70.6,19.7,88.4,2.4,104c-0.1,0.1-0.2,0.2-0.4,0.3"/>
</g>
</svg>
