<?xml version="1.0" encoding="utf-8"?>
<!-- Generator: Adobe Illustrator 24.3.0, SVG Export Plug-In . SVG Version: 6.00 Build 0)  -->
<svg version="1.1" xmlns="http://www.w3.org/2000/svg" xmlns:xlink="http://www.w3.org/1999/xlink" x="0px" y="0px"
	 viewBox="0 0 506 506" style="enable-background:new 0 0 506 506;" xml:space="preserve">
<style type="text/css">
	.st0{fill:#E0E0E0;}
	.st1{fill:#9E9E9E;}
</style>
<g id="background">
</g>
<g id="Objects">
	<g>
		<path class="st0" d="M4145.5,637.8c0,128.4-52.7,244.4-137.7,327.7c-7.5,7.3-15.2,14.4-23.2,21.2c-3.2,2.7-6.4,5.4-9.6,8
			c-11.7,9.5-23.8,18.4-36.4,26.6c-72.3,47.6-158.9,75.3-251.9,75.3c-93,0-179.6-27.7-251.9-75.3c-12.6-8.3-24.7-17.2-36.4-26.6
			c-3.3-2.6-6.5-5.3-9.6-8c-8-6.8-15.7-13.9-23.2-21.2c-85-83.3-137.7-199.3-137.7-327.7c0-253.4,205.4-458.8,458.8-458.8
			S4145.5,384.4,4145.5,637.8z"/>
		<path class="st1" d="M3975.1,994.6c-11.7,9.5-23.8,18.4-36.4,26.6c-72.3,47.6-158.9,75.3-251.9,75.3c-93,0-179.6-27.7-251.9-75.3
			c-12.6-8.3-24.7-17.2-36.4-26.6c7.7-58.9,44.3-110.5,97.6-136.8c-29.8-10.9-51.3-29-64.5-42.6c-8.8-9.1-9.4-23.2-1.5-33.1
			c22.1-27.6,63.1-81,63.5-203.9v-70.9c0-104.8,87.8-193.2,193.2-193.2c105.3,0,193.2,88.5,193.2,193.2v69
			c0,124.2,41.3,178,63.5,205.8c7.9,9.9,7.3,24-1.5,33.1c-13.1,13.7-34.8,31.7-64.6,42.6C3930.7,884.1,3967.3,935.7,3975.1,994.6z"
			/>
	</g>
	<g>
		<path class="st0" d="M503,253.5c0,69.8-28.7,132.9-74.9,178.2c-4.1,4-8.3,7.8-12.6,11.5c-7.9,6.8-16.3,13.1-25,18.8
			c-39.3,25.9-86.4,40.9-137,40.9s-97.7-15.1-137-40.9c-8.7-5.8-17.1-12-25-18.8c-4.3-3.7-8.5-7.5-12.6-11.5
			C32.7,386.4,4,323.3,4,253.5C4,115.7,115.7,4,253.5,4S503,115.7,503,253.5z"/>
		<path class="st1" d="M428.1,431.7c-4.1,4-8.3,7.8-12.6,11.5c-7.9,6.8-16.3,13.1-25,18.8c-39.3,25.9-86.4,40.9-137,40.9
			s-97.7-15.1-137-40.9c-8.7-5.8-17.1-12-25-18.8c-4.3-3.7-8.5-7.5-12.6-11.5c10-28.3,32.7-51.1,62.5-60.5l74.6-23.6v-12.3
			c-9.3-5.5-17.7-11.8-24.6-16.5c-12.8-8.6-21.4-22.2-23.9-37.5l-4-23.8c-12.5,0-22.5-10.1-22.5-22.5v-52.5
			c0-31.1,12.6-59.2,32.9-79.6c20.4-20.3,48.5-33,79.6-33c62.1,0,112.6,50.4,112.6,112.6V235c0,12.5-10.1,22.5-22.5,22.5l-4,23.8
			c-2.6,15.2-11.2,28.8-24,37.5c-6.9,4.7-15.2,11-24.5,16.5v12.3l74.5,23.6C395.4,380.6,418.2,403.4,428.1,431.7z"/>
	</g>
	<g>
		<path class="st0" d="M3391-106.8c0,128.4-52.7,244.4-137.7,327.7c-0.5,0.5-1.1,1-1.6,1.6c-7,6.8-14.2,13.3-21.6,19.6
			c-14.6,12.5-30,24.1-46,34.6c-72.3,47.6-158.9,75.3-251.9,75.3c-93,0-179.6-27.7-251.9-75.3c-16.1-10.6-31.5-22.2-46-34.6
			c-7.4-6.3-14.6-12.9-21.6-19.6c-0.5-0.5-1.1-1-1.6-1.6c-85-83.3-137.7-199.3-137.7-327.7c0-253.4,205.4-458.8,458.8-458.8
			S3391-360.1,3391-106.8z"/>
		<path class="st1" d="M3251.7,222.5c-7,6.8-14.2,13.3-21.6,19.6c-14.6,12.5-30,24.1-46,34.6c-72.3,47.6-158.9,75.3-251.9,75.3
			c-93,0-179.6-27.7-251.9-75.3c-16.1-10.6-31.5-22.2-46-34.6c-7.4-6.3-14.6-12.9-21.6-19.6c17.3-53.6,59.6-97,115.3-114.6
			L2863.9,65V42.6c-17-10.1-32.2-21.7-44.8-30.1c-23.3-15.7-39-40.4-43.7-68.2l-7.2-43.3c-22.7,0-41-18.3-41-41
			c0-16.9,10.1-31.3,24.6-37.6c-12.7-29.7-22-61.2-27.6-93.6c-3.6-20.5-5.6-42.1,0.5-61.8c6-19.7,21.9-37.1,40.7-37.4l2.5,0.2
			c11.8-18.5,30.3-30.7,49.8-37.7c19.4-7.1,39.9-9.4,60.2-11.8c7.9-0.9,15.9-1.8,23.9-2.6c36.9-3.6,77.1-4.4,114.8,6.1
			c37.7,10.5,74.2,34.1,93.4,71.6c15.3,29.8,18.4,65.7,14.5,99.8c-2.5,22.6-8,44.5-14.3,66.2c15.8,5.7,27.1,20.8,27.1,38.6
			c0,22.7-18.3,41-41,41l-7.2,43.3c-4.6,27.8-20.3,52.4-43.7,68.2c-12.6,8.5-27.8,20-44.8,30.1V65l135.8,42.9
			C3192.1,125.5,3234.4,168.9,3251.7,222.5z"/>
	</g>
	<g>
		<path class="st0" d="M4131,1825.2c0,128.4-52.7,244.4-137.7,327.7c-7.5,7.3-15.2,14.4-23.2,21.2c-3.2,2.7-6.4,5.4-9.6,8
			c-0.3,0.3-0.7,0.5-1,0.8c-11.4,9.2-23.2,17.8-35.4,25.8c-72.3,47.6-158.9,75.3-251.9,75.3c-93,0-179.6-27.7-251.9-75.3
			c-12.2-8-24-16.7-35.4-25.8c-0.3-0.3-0.7-0.5-1-0.8c-3.3-2.6-6.5-5.3-9.6-8c-8-6.8-15.7-13.9-23.2-21.2
			c-85-83.3-137.7-199.3-137.7-327.7c0-253.4,205.4-458.8,458.8-458.8S4131,1571.9,4131,1825.2z"/>
		<path class="st1" d="M3959.5,2182.9c-11.4,9.2-23.2,17.8-35.4,25.8c-72.3,47.6-158.9,75.3-251.9,75.3c-93,0-179.6-27.7-251.9-75.3
			c-12.2-8-24-16.7-35.4-25.8c7-66.6,51.1-124.4,114.8-148.3l103.9-38.9v-38.1c-7.7-4.9-14.8-10.2-21.1-15.9
			c-86.5,12.7-135.7-33.2-135.7-33.2s33.2-39.6,33.2-146v-0.2c0,0,0-68.6,0-68.7c0-104.2,87.4-192.2,192.2-192.2
			c104.8,0,192.2,88,192.2,192.2c0,0,0,68.7,0,68.7v0.2c0,106.3,33.2,146,33.2,146s-49.5,46.2-136,33.5
			c-6.3,5.6-13.2,10.8-20.8,15.6v38.2l103.9,38.9C3908.5,2058.5,3952.5,2116.3,3959.5,2182.9z"/>
	</g>
</g>
</svg>
