<?xml version="1.0" encoding="utf-8"?>
<!-- Generator: Adobe Illustrator 24.3.0, SVG Export Plug-In . SVG Version: 6.00 Build 0)  -->
<svg version="1.1" xmlns="http://www.w3.org/2000/svg" xmlns:xlink="http://www.w3.org/1999/xlink" x="0px" y="0px"
	 viewBox="0 0 500 500" style="enable-background:new 0 0 500 500;" xml:space="preserve">
<style type="text/css">
	.st0{display:none;}
	.st1{display:inline;}
	.st2{fill:#E1F9EB;}
	.st3{fill:#ABCECE;}
	.st4{fill:#78999B;}
	.st5{fill:#223D41;}
	.st6{fill:#FFFFFF;}
	.st7{fill:#FAA9A3;}
	.st8{fill:#6F402C;}
	.st9{fill:#E5DC96;}
	.st10{fill:#E26545;}
	.st11{fill:#FEEFE7;}
</style>
<g id="BACKGROUND" class="st0">
	<g class="st1">
		<rect class="st2" width="500" height="500"/>
	</g>
</g>
<g id="OBJECTS">
	<g>
		<path class="st3" d="M71.12,435.53h70.68l-15.58,21.22l0.81,0.59l16.02-21.82H214l-4.99,21.41l0.97,0.23l5.04-21.63h71.07
			l5.81,21.65l0.97-0.26l-5.74-21.39h70.95l16.79,21.83l0.79-0.61l-16.32-21.22H430l27.84,21.91l0.62-0.79l-26.85-21.13h3.61v-1
			h-4.88l-21.65-17.04h2.97v-1h-4.24l-16.53-13.01h2.48v-1h-3.75l-13.12-10.32l-0.62,0.79l12.12,9.54h-54.09l-7.88-10.24l-0.79,0.61
			l7.41,9.63h-54.38l-2.7-10.06l-0.97,0.26l2.63,9.8h-54.5l2.29-9.82l-0.97-0.23l-2.34,10.04h-54.4l7.07-9.64l-0.81-0.59
			l-7.51,10.23h-54.12l11.79-9.54l-0.63-0.78l-12.75,10.32h-7.66v1h6.43l-16.07,13.01H84.4v1h7.42l-21.05,17.04h-9.92v1h8.69
			l-26.11,21.13l0.63,0.78L71.12,435.53z M165.33,403.48l-9.55,13.01H94.64l16.07-13.01H165.33z M221.47,403.48l-3.03,13.01h-61.42
			l9.55-13.01H221.47z M277.5,403.48l3.49,13.01h-61.52l3.03-13.01H277.5z M333.42,403.48l10.01,13.01h-61.41l-3.49-13.01H333.42z
			 M405.81,416.49h-61.12l-10.01-13.01h54.6L405.81,416.49z M358.57,434.53l-13.11-17.04h61.62l21.65,17.04H358.57z M286.86,434.53
			l-4.57-17.04h61.91l13.11,17.04H286.86z M215.26,434.53l3.97-17.04h62.02l4.57,17.04H215.26z M143.77,434.53l12.51-17.04h61.92
			l-3.97,17.04H143.77z M72.35,434.53l21.05-17.04h61.64l-12.51,17.04H72.35z"/>
		<path class="st4" d="M233.37,425.01c8.45,0,16.27,0.49,22.64,1.33c9.94-2.59,26.43-4.28,45.11-4.28c30.38,0,55,4.48,55,10
			s-24.62,10-55,10c-18.68,0-35.17-1.69-45.11-4.28c-6.37,0.84-14.18,1.33-22.64,1.33c-21.4,0-38.75-3.15-38.75-7.05
			S211.97,425.01,233.37,425.01z"/>
		<g>
			<path class="st5" d="M87.61,384.37c-2.56,2.8-1.85,5.13,1.65,5.13h357.72c3.5,0,4.21-2.33,1.65-5.13l0,0
				c-2.49-2.72-7.15-4.87-10.48-4.87H98.09C94.77,379.5,90.1,381.65,87.61,384.37L87.61,384.37z"/>
		</g>
		<g>
			<path class="st4" d="M134.34,380.91c-7.41-12.79-14.31-25.86-20.64-39.22c-5.22-11.01-10.13-23.69-5.69-35.03
				c2.64-6.73,8.2-11.85,11.82-18.11c9.11-15.76,4.56-35.52,0.15-53.18c-4.41-17.66-8-37.9,2.45-52.81
				c9.96-14.22,28.98-18.18,46.18-20.54c17.2-2.36,36.1-5.08,47.57-18.11c10.52-11.95,11.7-29.12,15.78-44.51
				c4.12-15.55,11.87-30.42,23.78-41.22c11.92-10.8,28.26-17.18,44.24-15.29c15.17,1.8,28.5,10.53,41.19,19.03
				c31.6,21.14,63.19,42.28,94.79,63.43l0.19,6.39v249.18H134.34z"/>
		</g>
		<g>
			<g>
				<rect x="107.28" y="282.52" class="st3" width="334.1" height="20.01"/>
				<path class="st5" d="M106.78,282.02h335.1v21.01h-335.1V282.02z M440.87,283.02h-333.1v19.01h333.1V283.02z"/>
			</g>
			<g>
				<rect x="107.28" y="302.53" class="st3" width="334.1" height="82.17"/>
				<path class="st5" d="M106.78,302.03h335.1v83.17h-335.1V302.03z M440.87,303.03h-333.1v81.17h333.1V303.03z"/>
			</g>
			<g>
				<rect x="332.77" y="306.07" class="st4" width="104.34" height="73.09"/>
			</g>
			<g>
				<rect x="222.52" y="306.07" class="st4" width="104.34" height="73.09"/>
			</g>
			<g>
				<rect x="112.26" y="306.07" class="st4" width="104.34" height="73.09"/>
			</g>
			<g>
				<path class="st2" d="M114.96,348.03h2.36c2.28,0,4.12-1.85,4.12-4.12V333.6c0-2.28-1.85-4.12-4.12-4.12h-2.36V348.03z"/>
			</g>
			<g>
				<path class="st2" d="M225.81,348.03h2.36c2.28,0,4.12-1.85,4.12-4.12V333.6c0-2.28-1.85-4.12-4.12-4.12h-2.36V348.03z"/>
			</g>
		</g>
		<g>
			<g>
				<g>
					<rect x="315.68" y="271.26" class="st5" width="112.54" height="10.83"/>
				</g>
				<path class="st6" d="M372.12,276.97c0,1.98,1.6,3.58,3.58,3.58c1.98,0,3.58-1.6,3.58-3.58c0-1.98-1.6-3.58-3.58-3.58
					C373.73,273.39,372.12,274.99,372.12,276.97z"/>
				<path class="st6" d="M360.54,276.97c0,1.98,1.6,3.58,3.58,3.58c1.98,0,3.58-1.6,3.58-3.58c0-1.98-1.6-3.58-3.58-3.58
					C362.14,273.39,360.54,274.99,360.54,276.97z"/>
			</g>
			<path class="st5" d="M194.19,245.43c0.77-0.09,1.53,0.2,2.25,0.49c1.23,0.49,2.45,0.97,3.68,1.46h43.27
				c1.23-0.49,2.45-0.97,3.68-1.46c0.72-0.29,1.48-0.58,2.25-0.49c0.77,0.09,1.54,0.69,1.53,1.47c-0.01,0.88-0.93,1.43-1.73,1.8
				c-1.71,0.8-3.41,1.6-5.11,2.4v22.23c0,3.98-3.23,7.21-7.21,7.21h-30.07c-3.98,0-7.21-3.23-7.21-7.21V251.1
				c-1.71-0.8-3.41-1.6-5.12-2.4c-0.8-0.37-1.71-0.92-1.73-1.8C192.65,246.13,193.42,245.52,194.19,245.43z"/>
			<g>
				<path class="st5" d="M131.04,259.99c0.57,1.47,2.54,1.49,3.18,1.49l0.88,0c1.98,0.01,4.02,0.02,5.95,0.46
					c0.18,0.04,0.38,0.09,0.6,0.16v11.66c0,3.75,3.04,6.78,6.78,6.78h29.51c3.75,0,6.78-3.04,6.78-6.78V262.3
					c0.45-0.16,0.87-0.27,1.22-0.35c1.92-0.44,3.97-0.45,5.95-0.46l0.88,0c0.65-0.01,2.61-0.02,3.18-1.49
					c0.38-0.97-0.15-2.02-0.87-2.55c-0.74-0.55-1.66-0.69-2.38-0.75c-2.96-0.23-5.87,0.64-8.51,1.76h-41.39
					c-2.64-1.12-5.54-1.99-8.52-1.76c-0.72,0.06-1.63,0.19-2.38,0.75C131.2,257.97,130.67,259.02,131.04,259.99z M184.73,261.24
					v-1.93c2.49-1.04,5.19-1.83,7.89-1.62c0.58,0.05,1.32,0.15,1.86,0.55c0.4,0.3,0.73,0.89,0.54,1.39
					c-0.22,0.56-0.98,0.84-2.26,0.85l-0.87,0c-2.03,0.01-4.13,0.02-6.17,0.49C185.38,261.05,185.05,261.14,184.73,261.24z
					 M132.51,258.24c0.54-0.4,1.28-0.51,1.86-0.55c2.49-0.2,4.97,0.45,7.28,1.37v2.02c-0.13-0.03-0.25-0.07-0.38-0.1
					c-2.03-0.47-4.13-0.48-6.17-0.49l-0.87,0c-1.29-0.01-2.05-0.3-2.26-0.85C131.78,259.13,132.11,258.54,132.51,258.24z"/>
				<g>
					<path class="st2" d="M144.26,257.95c3.26-3.41,10.64-5.8,19.24-5.8c8.6,0,15.98,2.39,19.24,5.8H144.26z"/>
				</g>
				<g>
					<rect x="142.86" y="256.79" class="st5" width="41.28" height="1.64"/>
				</g>
				<g>
					<path class="st5" d="M159.41,249.51c0-1.12,1.83-2.03,4.08-2.03c2.26,0,4.08,0.91,4.08,2.03c0,0.85-1.06,1.58-2.56,1.88v1.02
						h-3.05v-1.02C160.48,251.09,159.41,250.36,159.41,249.51z"/>
				</g>
			</g>
		</g>
		<g>
			<g>
				<rect x="101.55" y="75.08" class="st2" width="343.5" height="84"/>
			</g>
			<g>
				<rect x="303.31" y="79.83" class="st3" width="138.07" height="75.99"/>
				<path class="st5" d="M302.81,79.33h139.07v76.99H302.81V79.33z M440.87,80.33H303.81v74.99h137.07V80.33z"/>
			</g>
			<g>
				<rect x="160.6" y="79.83" class="st3" width="138.07" height="75.99"/>
				<path class="st5" d="M160.1,79.33h139.07v76.99H160.1V79.33z M298.17,80.33H161.1v74.99h137.07V80.33z"/>
			</g>
			<g>
				<rect x="104.91" y="79.83" class="st3" width="51.05" height="75.99"/>
				<path class="st5" d="M104.41,79.33h52.05v76.99h-52.05V79.33z M155.46,80.33h-50.05v74.99h50.05V80.33z"/>
			</g>
			<g>
				<path class="st2" d="M437.65,108.26h-2.36c-2.28,0-4.12,1.85-4.12,4.12v10.31c0,2.28,1.85,4.12,4.12,4.12h2.36V108.26z"/>
			</g>
			<g>
				<path class="st2" d="M152.62,108.26h-2.36c-2.28,0-4.12,1.85-4.12,4.12v10.31c0,2.28,1.85,4.12,4.12,4.12h2.36V108.26z"/>
			</g>
		</g>
		<g>
			<g>
				<rect x="306.21" y="163.07" class="st5" width="135.17" height="10.93"/>
			</g>
			<g>
				<rect x="306.21" y="169.74" class="st4" width="135.17" height="5.51"/>
			</g>
		</g>
		<g>
			<g>
				<g>
					<path class="st7" d="M273.25,425.54c0.28-0.2,0.66-0.14,1-0.1c0.59,0.07,2.28-0.16,2.88-0.21c3.17-1.75,3.8-2.71,6.45-3.67
						c3.97-1.44,8.18-2.67,11.3-5.5l11.09,0.35c-0.22,2.13-0.18,3.94-0.22,5.84c-0.04,1.84-1.42,3.37-3.25,3.57
						c-4.68,0.51-10.47,0.93-15.25,1.99c-3.5,0.77-7.1,1.08-10.68,0.95c-0.44,0.05-0.88,0.06-1.31-0.04
						c-1.02-0.23-1.95-0.97-2.25-1.97C272.87,426.32,272.89,425.79,273.25,425.54z"/>
				</g>
				<g>
					<path d="M265.69,249.61h45.23l0,160.46c0.12,2.71,0.23,5.41,0.35,8.12c-6.6-0.18-13.2-0.36-19.8-0.54
						c1.27-25.01-7.68-49.17-14.06-73.56C269.38,313.34,266.45,281.41,265.69,249.61z"/>
				</g>
			</g>
			<g>
				<g>
					<path class="st7" d="M339.79,427.16c0.99,0.05,1.98,0.33,2.83,0.84c0.59,0.36,1.18,1.07,0.83,1.67
						c0.47,0.15,0.95,0.31,1.34,0.62c0.39,0.3,0.69,0.78,0.64,1.27c-0.05,0.49-0.53,0.94-1.01,0.84c0.62,0.28,0.65,1.25,0.2,1.76
						c-0.46,0.51-1.19,0.67-1.87,0.72c-0.86,0.06-1.73-0.02-2.57-0.2c-0.11-0.01-0.23-0.01-0.34-0.02
						c-8.82-0.84-16.79-7.87-25.47-8.58c-1.22-0.1-3.22-1.78-3.31-3c-0.15-2.04,0.96-3.98,0.8-6.02
						C321.78,416.54,331.81,420.2,339.79,427.16z"/>
				</g>
				<g>
					<path class="st8" d="M295.68,249.61h59.33c2.39,23.51-3.19,40.36-9.4,67.91c-7.63,33.87-15.4,67.5-17.18,102.18
						c-7.07-0.23-16.43-0.46-23.5-0.69C305.61,362.41,302.51,305.78,295.68,249.61z"/>
				</g>
			</g>
			<g>
				<g>
					<g>
						<path class="st7" d="M117.86,183.67c17.85-2.75,32.49-3.88,50.39-1.5c6.69-14.45,14.82-28.17,24.22-40.89
							c5.34,8.68,13.93,14.28,23.32,18.73c-10.72,13.6-18.45,19.6-28.31,35.65c-1.8,2.92-3.61,5.83-6.52,7.65l-0.79,0.49
							c-3.35,2.09-7.34,2.92-11.25,2.35c-18.17-2.68-32.88-9.35-51.06-12.03C117.79,185.23,117.94,192.55,117.86,183.67z"/>
					</g>
					<g>
						<path class="st6" d="M191.54,141.71c6.81-9.22,15.21-18.34,23.27-26.4c0.27,13.8,5.27,26.25,12.76,37.35
							c-4.12,2.1-8.13,6.58-11.87,9.35C206.32,157.57,196.88,150.39,191.54,141.71z"/>
					</g>
					<g>
						
							<rect x="155.36" y="182.92" transform="matrix(0.9294 -0.3691 0.3691 0.9294 -56.5489 71.2631)" class="st8" width="5.21" height="1"/>
					</g>
					<g>
						<path class="st8" d="M146.73,184.82c1.58-1.02,3.4-1.72,5.25-2.03l-0.16-0.99c-1.99,0.33-3.93,1.08-5.63,2.17L146.73,184.82z"
							/>
					</g>
					<g>
						<path class="st8" d="M148.38,187.43c1.11-0.36,2.06-1.15,2.61-2.17l-0.88-0.47c-0.43,0.8-1.17,1.42-2.03,1.69L148.38,187.43z"
							/>
					</g>
					<g>
						<path class="st8" d="M134.35,185.27c1.07-0.59,2.28-0.97,3.49-1.1l-0.11-0.99c-1.34,0.15-2.67,0.57-3.86,1.22L134.35,185.27z"
							/>
					</g>
				</g>
				<g>
					<g>
						<path class="st5" d="M212.41,122.16c-1.94,11.35,2.97,22.85,9.63,32.24c6.66,9.39,15.11,17.4,21.76,26.8
							c15.55,21.98,9.83,49.53,13.96,76.14l102.68,1.45c2.61-21.75-3.44-43.62-8.73-64.24c-5.29-20.62-15.35-39.85-28.07-56.92
							c-7.66-10.28-16.6-19.97-27.91-26.01c-20.46-10.93-42.25-10.79-63.23-5.95c-4.14,0.95-11.76,3.24-15.4,5.44
							C213.47,113.31,213.13,117.97,212.41,122.16z"/>
					</g>
					<g>
						<path d="M269.22,108.01c-3.92,0.57-7.17,3.64-8.74,7.27c-2.56,5.9-1.08,12.98,2.5,18.32c3.58,5.34,8.98,9.19,14.57,12.35
							c13.9,7.86,29.69,12.24,42.9,21.2c15.17,10.3,26.19,26.54,30.14,44.45c2.64,11.97,2.27,24.66,6.75,36.07
							c5.93-28.03,0.15-58.09-14.5-82.72c-14.65-24.62-37.83-43.79-64.21-54.97C275.63,108.73,272.43,107.54,269.22,108.01z"/>
					</g>
				</g>
				<g>
					<g>
						<path class="st9" d="M331.28,359.05h-64.3c-4.62-25.6-8.18-84.57-6.79-105.12c0.44-6.56,1.69-17.18,1.68-23.76
							c-0.02-8.3-2.91-16.33-6.41-23.86c-5.57-11.97-15.1-28.18-24.32-39.65c-1.72-2.15-0.22-5.33,2.54-5.37l53.62-0.77
							c17.26-0.25,33.28,8.8,42.1,23.64c7.1,11.95,12.86,25.13,14.24,35.83c3.11,24.2-3.06,49.18-6.68,73.31
							C334.03,312.78,333.53,345.94,331.28,359.05z"/>
					</g>
					<g>
						<path class="st5" d="M268.44,356.82c-4.61-27.35-7.72-83.71-6.43-102.76c0.14-2.09,0.37-4.62,0.61-7.29l0.01-0.16
							c0.5-5.6,1.07-11.94,1.06-16.44c-0.02-9.32-3.53-18.05-6.58-24.63c-5.2-11.19-14.81-27.91-24.55-40.02
							c-0.37-0.46-0.43-1.02-0.19-1.55c0.25-0.54,0.74-0.85,1.33-0.85l53.62-0.77l0.67,0c16.23,0,31.5,8.72,39.84,22.76
							c7.8,13.13,12.77,25.6,14,35.13c2.43,18.88-0.93,38.56-4.18,57.59c-0.85,4.99-1.73,10.15-2.49,15.22
							c-1.53,10.24-2.38,23.84-3.21,37.03c-0.65,10.47-1.27,20.36-2.16,26.73l-0.06,0.43h-61.22L268.44,356.82z M330.95,329.97
							c0.82-13.17,1.67-26.8,3.21-37.08c0.76-5.08,1.65-10.25,2.5-15.25c3.24-18.95,6.58-38.55,4.17-57.28
							c-1.21-9.4-6.13-21.74-13.86-34.75c-8.16-13.74-23.1-22.27-38.97-22.27l-54.28,0.78c-0.13,0-0.32,0.03-0.44,0.28
							c-0.11,0.24-0.02,0.4,0.06,0.5c9.79,12.18,19.45,28.98,24.68,40.23c3.1,6.67,6.66,15.54,6.68,25.05
							c0.01,4.55-0.56,10.91-1.07,16.54l-0.01,0.15c-0.24,2.67-0.46,5.19-0.6,7.27c-1.28,18.9,1.78,74.66,6.35,102.11h59.5
							C329.71,349.89,330.31,340.23,330.95,329.97z"/>
					</g>
					<g>
						<path class="st9" d="M254.75,106.28c0.6-1.37,1.36-2.74,2.58-3.61c1.22-0.87,3.01-1.09,4.18-0.16
							c-6.03,6.32-7.88,15.9-6.07,24.44c1.81,8.54,6.91,16.11,13.12,22.25c6.21,6.14,13.55,11,20.83,15.83
							c-1.49,1.05-3.53,1.03-5.24,0.4c-1.71-0.63-3.16-1.8-4.56-2.96c-8.5-7.02-16.75-14.71-22.03-24.39
							C252.27,128.41,250.31,116.37,254.75,106.28z"/>
					</g>
					<g>
						<path class="st9" d="M219.41,108.8c-2.62,10.26-0.99,21.32,3.26,31.02c4.25,9.7,10.98,18.14,18.55,25.55
							c-1.29,0.11-2.58,0.22-3.86,0.33c-6.52-8.13-12.94-16.5-17.12-26.05c-4.17-9.55-5.95-20.51-2.9-30.47
							C218.03,109.05,218.72,108.92,219.41,108.8z"/>
					</g>
					<g>
						<path class="st5" d="M285.25,171.71c-0.56-0.19-1.26-0.48-1.82-1.03c-0.61-0.6-0.89-1.43-0.73-2.16
							c0.13-0.6,0.53-1.13,1.17-1.52l-0.01-0.25l0.66-0.1c2.86-0.51,4.9-0.3,6.56,0.64c1.11,0.62,2.06,1.83,1.69,3.11
							c-0.3,1.03-1.37,1.71-2.93,1.86c-0.35,0.03-0.7,0.05-1.06,0.05C287.57,172.3,286.38,172.1,285.25,171.71z M284.8,167.6
							c-0.1,0.08-0.2,0.14-0.26,0.16c-0.46,0.22-0.78,0.58-0.86,0.96c-0.08,0.4,0.1,0.89,0.46,1.25c0.32,0.32,0.76,0.56,1.44,0.79
							c1.33,0.46,2.75,0.62,4.16,0.48c0.42-0.04,1.81-0.25,2.07-1.15c0.21-0.72-0.46-1.53-1.22-1.96c-0.93-0.52-2.03-0.77-3.37-0.77
							C286.49,167.37,285.7,167.45,284.8,167.6z"/>
					</g>
					<g>
						<path class="st5" d="M241.41,170.42c-0.92-0.12-1.79-0.28-2.5-0.86c-0.46-0.38-0.77-0.99-0.8-1.58
							c-0.03-0.49,0.13-0.93,0.44-1.26c0.34-0.36,0.85-0.56,1.55-0.62c1.03-0.08,2.07,0.11,2.98,0.55c0.86,0.41,1.79,1.27,1.55,2.37
							c-0.14,0.65-0.72,1.2-1.47,1.39c-0.24,0.06-0.49,0.09-0.78,0.09C242.06,170.5,241.73,170.46,241.41,170.42z M240.17,167.1
							c-0.44,0.03-0.73,0.13-0.9,0.31c-0.15,0.16-0.17,0.36-0.16,0.51c0.02,0.32,0.19,0.66,0.44,0.87c0.5,0.41,1.22,0.54,1.99,0.64
							c0.48,0.06,1,0.11,1.38,0.01c0.32-0.08,0.67-0.31,0.74-0.63c0.1-0.49-0.45-0.99-1-1.25c-0.65-0.31-1.38-0.47-2.11-0.47
							C240.42,167.09,240.3,167.09,240.17,167.1z"/>
					</g>
				</g>
				<g>
					<g>
						<path class="st7" d="M225.1,133.27c-1.57-1.05-2.26-2.96-2.96-4.72c-2.83-7.04-7.38-13.38-13.15-18.3
							c4.54-3.1,8.06-7.66,9.89-12.84c6.56,5.53,14.63,9.26,23.1,10.66c1.53,4.52,1.42,9.57-0.29,14.02
							c-1.72,4.45-5.03,8.26-9.2,10.58C230.21,133.94,227.26,134.72,225.1,133.27z"/>
					</g>
					<g>
						<path d="M208.99,110.25c3.61-2.46,6.55-5.86,8.54-9.75c5.97,4.58,8.24,14.47,3.59,20.05c-0.72,0.54-1.4,1.14-2.07,1.77
							C216.39,117.78,212.99,113.67,208.99,110.25z"/>
					</g>
					<path class="st7" d="M186.79,104.34c0.32-0.88,0.62-1.79,1.23-2.5c0.06-0.07,0.13-0.12,0.19-0.18
						c-0.64-4.34-1.44-8.65-2.44-12.92c10.36-1.71,20.89-2.4,31.38-2.08l4.13,0.78c0.61,6.47,0.81,13.04-0.41,19.42
						c-1.22,6.38-3.94,12.6-8.52,17.21c-4.84,4.87-11.69,7.63-18.54,7.65c-2.17,0-3.9-1.83-3.87-4c0.07-4.93-0.09-9.86-0.47-14.77
						c-0.19,0.01-0.38,0.01-0.57,0.02c-0.74,0.03-1.54,0.03-2.14-0.4c-0.82-0.6-0.91-1.77-0.89-2.79
						C185.9,107.92,186.17,106.05,186.79,104.34z"/>
					<g>
						<path class="st10" d="M215.61,99.11c0.76,0.66,0.98,1.87,0.5,2.76c-0.14,0.26-0.31,0.61-0.08,0.79c0.18,0.14,0.44,0,0.61-0.15
							c0.5-0.47,0.8-1.16,0.79-1.85c0-0.69-0.31-1.37-0.81-1.84c-0.36-0.33-0.85-0.64-0.83-1.13c0.01-0.17,0.09-0.33,0.14-0.49
							c0.19-0.63-0.07-1.38-0.62-1.75c-0.55-0.37-1.34-0.32-1.84,0.12c-0.46,0.4-0.52,1.09-0.33,1.81
							C213.38,98.37,214.84,98.44,215.61,99.11z"/>
					</g>
					<path class="st10" d="M181.68,87.65c-1.57-0.47-2.87-1.74-3.37-3.3c1.63,1.05,3.89,0.99,5.47-0.14
						c-0.39-0.42-0.78-0.84-1.17-1.25c2.92,0.4,5.82-0.73,8.44-2.09c2.61-1.36,5.13-2.99,7.98-3.73c4.61-1.2,9.78,0.25,13.17,3.57
						c0.49,0.18,1.02,0.37,1.64,0.57c1.67,0.53,5.29,0.21,6.53,1.45c1.81,1.81,2.2,7.12,2.14,9.67c-0.06,2.55-0.46,5.39,0.17,7.86
						c-1.55-0.76-3.17-1.61-4.83-2.09c0.04-1.97-1.23-3.95-3.09-4.64c-0.98-0.36-2.18-0.35-2.98,0.32
						c-0.64,0.54-0.93,1.42-0.93,2.26c0,0.3,0.03,0.6,0.08,0.9c-0.81-0.04-1.62-0.06-2.43-0.04c0.55-2.89-1.12-6.06-3.83-7.23
						c-1.83-0.79-3.9-0.68-5.86-0.21c-2.89,1.38-6,2.7-9.15,3.01c-1.69,0.27-3.47,0.17-4.97-0.51c-3.12-1.05-5.87-3.4-7.09-6.4
						C178.53,86.87,180.09,87.65,181.68,87.65z"/>
					<g>
						<g>
							<g>
								<path class="st8" d="M188.41,113.48c0.18,0,0.35-0.01,0.51-0.01l3.23-0.11c0.41-0.01,0.96-0.03,1.42-0.38
									c0.31-0.23,0.5-0.62,0.49-1.01c0-0.33-0.14-0.62-0.39-0.81l-0.6,0.8c0,0.03-0.03,0.16-0.11,0.22
									c-0.18,0.14-0.49,0.16-0.84,0.17l-3.23,0.11c-0.73,0.03-1.38,0.02-1.83-0.31c-0.64-0.46-0.7-1.51-0.69-2.37
									c0.04-1.98,0.34-3.76,0.89-5.28l0.07-0.2c0.29-0.8,0.56-1.56,1.06-2.15c0.56-0.65,1.33-1.02,2.03-0.95l0.14-1.07
									c-1.02-0.11-2.15,0.45-2.93,1.37c-0.62,0.73-0.91,1.48-1.21,2.33l-0.12,0.27c-0.59,1.63-0.89,3.57-0.93,5.66
									c-0.02,1.1,0.08,2.46,1.1,3.2C187.06,113.41,187.78,113.48,188.41,113.48z"/>
							</g>
							<g>
								<g>
									<path class="st10" d="M189.91,124.6c0.14,0.45,0.39,0.84,0.84,0.85c0.62,0.02,0.94-0.72,1.04-1.33
										c0.29-1.77,0.13-3.61-0.45-5.3c0.54-0.02,1.07-0.05,1.61-0.07c0.13,1.22,0.26,2.45,0.73,3.58
										c0.46,1.13,1.31,2.16,2.47,2.56c1.27,0.44,2.65,0.05,3.94-0.33c2.68-0.8,5.55-1.74,7.15-4.03c0.98-1.41,1.35-3.2,1.15-4.91
										c-0.2-1.71-0.95-3.32-1.99-4.69c-0.35-0.46-0.74-0.9-1.25-1.18c-0.5-0.28-1.14-0.38-1.66-0.14
										c-0.97,0.45-1.12,1.73-1.42,2.76c-0.71,2.4-2.94,4.12-5.32,4.89c-2.32,0.75-4.8,0.75-7.23,0.73
										c-0.14-1.03-0.3-2.06-0.47-3.08c1.52,0.4,3.1,0.66,4.65,0.47c1.56-0.2,3.09-0.89,4.06-2.12c1.2-1.53,1.4-3.65,2.56-5.22
										c1.02-1.38,2.86-2.19,4.53-1.77c1.38,0.35,2.44,1.42,3.34,2.53c1.39,1.72,2.55,3.62,3.71,5.51
										c0.88,1.44,1.79,2.96,1.88,4.65c0.1,1.89-0.93,4.02-2.14,5.48c-2.12,2.56-4.95,4.32-8.06,5.5
										c-3.11,1.18-6.44,1.47-9.75,1.79c-1.14,0.11-2.42,0.15-3.29-0.59c-0.63-0.53-0.92-1.38-0.96-2.21
										c-0.05-0.82,0.11-1.64,0.21-2.46C189.84,125.85,189.88,125.22,189.91,124.6z"/>
								</g>
								<g>
									<path class="st8" d="M191.69,118.24c1.29,0,2.58-0.06,3.87-0.27c2.26-0.38,4.19-1.25,5.56-2.51
										c1.66-1.52,2.54-3.71,2.28-5.7l-0.99,0.13c0.22,1.67-0.54,3.53-1.96,4.83c-1.23,1.13-2.98,1.91-5.05,2.26
										c-1.9,0.32-3.88,0.27-5.79,0.23l-0.03,1C190.28,118.22,190.98,118.24,191.69,118.24z"/>
								</g>
							</g>
						</g>
						<path d="M184.85,99.75c0,1.76,0.66,3.24,1.63,3.92c0.12-0.36,0.25-0.68,0.39-0.96c-0.6-0.55-1.02-1.68-1.02-2.95
							c0-1.8,0.83-3.32,1.82-3.32c0.99,0,1.82,1.52,1.82,3.32c0,0.2-0.01,0.39-0.03,0.58c0.42-0.13,0.78-0.16,1.01-0.16
							c0.01-0.14,0.03-0.28,0.03-0.42c0-0.22-0.02-0.43-0.04-0.64c1.16-0.24,2.38-0.29,3.56-0.16c-0.01,0.1-0.02,0.19-0.02,0.3
							c0,2.66,1.76,4.83,3.93,4.83s3.93-2.17,3.93-4.83c0-0.33-0.03-0.66-0.08-0.97l0.16-0.09c3.46-1.99,5.2-2.99,9.17-2.9l0.02-1
							c-4.25-0.1-6.17,1-9.63,3c-0.62-1.68-1.99-2.85-3.58-2.85c-1.8,0-3.31,1.51-3.77,3.54c-1.29-0.14-2.58-0.09-3.86,0.17
							c-0.41-1.59-1.41-2.69-2.62-2.69C186.09,95.43,184.85,97.32,184.85,99.75z M194.99,99.24c0-2.11,1.32-3.83,2.93-3.83
							c1.62,0,2.93,1.72,2.93,3.83c0,2.11-1.32,3.83-2.93,3.83C196.3,103.06,194.99,101.35,194.99,99.24z"/>
					</g>
				</g>
			</g>
		</g>
		<g>
			<g>
				<path class="st5" d="M102.63,228.82h32.65c1.56,0,2.71-1.48,2.31-2.99l-13.26-51.22c-0.27-1.05-1.22-1.79-2.31-1.79H89.36
					c-1.56,0-2.71,1.48-2.31,2.99l13.26,51.22C100.59,228.09,101.54,228.82,102.63,228.82z"/>
			</g>
			<g>
				<path d="M130.67,202.96l5.55,22.61c0.41,1.66-0.85,3.26-2.55,3.26h-30.22c-1.21,0-2.27-0.83-2.55-2l-5.55-22.61
					c-0.41-1.66,0.85-3.26,2.55-3.26h30.22C129.32,200.95,130.38,201.78,130.67,202.96z"/>
			</g>
			<g>
				<path class="st4" d="M90.89,203.31l-5.6,22.83c-0.34,1.37,0.7,2.69,2.11,2.69h31.17c1,0,1.87-0.68,2.11-1.65l6.44-26.22H93.89
					C92.46,200.95,91.22,201.93,90.89,203.31z"/>
			</g>
		</g>
		<g>
			<g>
				<polygon class="st8" points="430.84,451.89 436.2,451.89 405.56,238.04 394.84,238.04 				"/>
			</g>
			<g>
				<polygon class="st8" points="50.24,451.89 44.88,451.89 75.53,238.04 86.24,238.04 				"/>
			</g>
			<g>
				<polygon points="403.17,432.66 407.75,432.66 390.72,238.04 380.97,238.04 				"/>
			</g>
			<g>
				<polygon points="77.92,432.66 73.34,432.66 90.36,238.04 100.12,238.04 				"/>
			</g>
			<g>
				<rect x="41.54" y="228.93" class="st11" width="398.01" height="12.86"/>
			</g>
			<g>
				<rect x="41.54" y="238.24" class="st8" width="398.01" height="3.55"/>
			</g>
		</g>
		<g>
			<path class="st7" d="M183.61,204.76"/>
		</g>
		<g>
			<g>
				<path class="st7" d="M304.15,108.97c15.61,5.88,29.48,16.32,39.7,29.15c14.86,18.66,24.21,44.65,26.39,68.02
					c-5.02,0.72-13.56-0.09-18.58,0.63c-7.8-29.79-27.24-54.97-63.47-64.17C289.45,129.97,294.25,117.95,304.15,108.97z"/>
			</g>
			<g>
				<path class="st7" d="M347.88,207.07c-2.41,0.29-4.2-2.2-6.51-2.98c-2.31-0.78-5.13,0.2-7.12-1.21c-0.53-0.38-1.03-0.93-1.68-0.9
					c-0.75,0.04-1.23,0.86-1.28,1.61c-0.12,1.77,1.3,3.28,2.85,4.14c1.55,0.86,3.31,1.29,4.8,2.25c0.97,0.62,1.79,1.45,2.72,2.12
					c0.94,0.67,2.06,1.19,3.2,1.08C346.61,213,348.29,208.78,347.88,207.07z"/>
			</g>
			<g>
				<g>
					<path d="M336.52,212.97h40.31c1.26,0,2.27-1.02,2.27-2.27v-3c0-1.26-1.02-2.27-2.27-2.27h-40.31c-1.26,0-2.27,1.02-2.27,2.27v3
						C334.25,211.95,335.26,212.97,336.52,212.97z"/>
				</g>
				<g>
					<g>
						<path class="st6" d="M296.62,228.39h38.72v-20.55c0-0.79-0.64-1.43-1.43-1.43h-31.73c-3.07,0-5.56,2.49-5.56,5.56V228.39z"/>
					</g>
					<g>
						<rect x="296.62" y="223.7" class="st3" width="38.72" height="4.7"/>
					</g>
				</g>
			</g>
			<g>
				<path class="st7" d="M350.27,219.82c0.54,1.25,1.74,2.71,3.01,2.61s2.51-1.1,2.88-2.41c-0.11,1.39,0.95,2.22,2.24,2.35
					c1.29,0.13,2.54-0.53,3.62-1.32c3.37-2.46,5.79-6.37,6.59-10.66c0.36-1.95,0.4-4.01-0.21-5.89c-0.61-1.88-1.91-3.55-3.65-4.23
					c-1.74-0.68-3.95,0.05-5.11,1.61c-1.21-1.88-2.4-3.19-4.15-3.03c-1.76,0.16-2.81,0.89-3.75,3.03c-1.49-1.18-2.27-2.38-4.02-1.74
					c-1.75,0.64-2.28,2.01-3.48,4.02c-0.54-1.07-1.71-1.71-2.81-1.61c-1.1,0.11-2.12,2.16-2.48,3.28c-0.35,1.13-0.25,3.24-0.13,4.42
					c0.39,3.96,0.52,6.72,2.41,9.98c0.56,0.96,2.49,0.67,2.61,0.47l0.94-2.08c0.38,1.33,1.1,2.86,2.34,3.22
					C348.37,222.18,349.33,220.76,350.27,219.82z"/>
			</g>
			<g>
				<path class="st6" d="M261.22,115.89c1.52-5.01,6.8-9.6,12-11.18l8.76-0.73c7.63,0.59,17.14,0.82,24.23,3.49
					c-9.9,8.98-15.17,22.75-16.44,35.39c-1.58-0.4-4.76-1.05-6.4-1.39c-7.75-1.6-13.87-4.65-18.98-10.46
					C260.87,127.04,259.7,120.9,261.22,115.89z"/>
			</g>
			<g>
				<path class="st8" d="M356.62,172.31l0.49-0.87c-2.76-1.54-5.73-2.69-8.81-3.42l-0.26,0.96l0.77,0.24l0.01-0.05
					C351.54,169.89,354.16,170.94,356.62,172.31z"/>
			</g>
			<g>
				<path class="st8" d="M353.84,175.12l0.23-0.97c-3-0.73-6.09-1.14-9.18-1.22l-0.03,1C347.89,174.01,350.9,174.41,353.84,175.12z"
					/>
			</g>
			<g>
				
					<rect x="357.93" y="181.53" transform="matrix(0.2167 -0.9762 0.9762 0.2167 101.4059 493.8083)" class="st8" width="1" height="4.36"/>
			</g>
			<g>
				<path class="st8" d="M361.82,192.04l0.52-0.85c-1.81-1.11-3.9-1.76-6.02-1.88l-0.06,1
					C358.22,190.42,360.14,191.02,361.82,192.04z"/>
			</g>
		</g>
		<g>
			<g>
				<path class="st6" d="M383.72,193.82v19.74c0,2.91,2.36,5.27,5.27,5.27h6.97v6.19c0,2.11,1.71,3.82,3.82,3.82h20.59
					c2.11,0,3.82-1.71,3.82-3.82v-31.86l6.03-7.19h-34.25v2.59h-6.97C386.08,188.55,383.72,190.91,383.72,193.82z M386.83,197.61
					c0-2.14,1.73-3.87,3.87-3.87h5.25v22.24h-5.25c-2.14,0-3.87-1.73-3.87-3.87V197.61z"/>
			</g>
			<g>
				<g>
					<path class="st9" d="M239.61,217.78c0.06-2.29,1.9-4.3,4.1-4.97c2.19-0.67,4.62-0.16,6.63,0.95c2.01,1.11,3.65,2.77,5.15,4.51
						c1.1,1.28,2.17,2.66,2.64,4.28c0.47,1.62,0.24,3.55-0.98,4.72c-1.29,1.23-3.28,1.33-5.04,1.08c-4.01-0.58-7.78-2.66-10.41-5.75
						C240.53,221.23,239.56,219.57,239.61,217.78z"/>
				</g>
				<g>
					<path class="st6" d="M243.82,215.56c0.01-0.73,0.53-1.39,1.19-1.72c0.66-0.33,1.42-0.37,2.15-0.29
						c1.62,0.19,3.13,0.97,4.42,1.97c1.29,1,2.38,2.23,3.47,3.45c0.38,0.43,0.79,0.96,0.64,1.51c-0.11,0.43-0.55,0.71-0.98,0.78
						c-0.44,0.07-0.88-0.03-1.31-0.12c-3.06-0.69-6.29-1.47-8.55-3.65C244.31,216.97,243.81,216.31,243.82,215.56z"/>
				</g>
			</g>
			<g>
				<g>
					<path class="st9" d="M231.27,214.68c1.12-0.41,2.31-0.74,3.49-0.61c1.69,0.18,3.16,1.25,4.31,2.5
						c1.77,1.93,2.99,4.35,3.49,6.93c0.27,1.39,0.28,2.96-0.64,4.04c-0.98,1.15-2.69,1.34-4.2,1.17c-3.55-0.4-6.89-2.35-8.98-5.25
						c-1.36-1.89-2.16-4.56-0.88-6.5C228.61,215.79,229.96,215.15,231.27,214.68z"/>
				</g>
				<g>
					<path class="st6" d="M237.22,219.42c-0.11-0.53-0.1-1.17,0.33-1.49c0.28-0.21,0.68-0.22,1.01-0.09
						c0.33,0.13,0.6,0.36,0.84,0.62c0.85,0.9,1.42,2.05,1.63,3.26c0.08,0.49,0.03,1.12-0.43,1.31c-0.31,0.12-0.65-0.02-0.94-0.2
						C238.42,222.09,237.52,220.83,237.22,219.42z"/>
				</g>
			</g>
			<g>
				<g>
					<path class="st10" d="M268.29,218.08c0.6-1.28,1.87-2.16,3.22-2.6c1.35-0.43,2.79-0.48,4.21-0.47
						c7.02,0.03,13.99,1.18,20.92,2.32c0,2.08,0.01,4.15,0.01,6.23l0.05,4.49c-5.03,0.24-10.05,0.48-15.08,0.72
						c-2.31,0.11-4.64,0.22-6.9-0.29c-2.25-0.5-4.45-1.7-5.66-3.67C267.86,222.85,267.31,220.17,268.29,218.08z"/>
				</g>
				<g>
					<path class="st7" d="M275.09,226.58c1.25,0.65,2.75,1.11,4.04,0.55c1.52-0.66,2.19-2.59,1.81-4.2s-1.57-2.92-2.89-3.91
						c-1.33-1-2.83-1.76-4.42-2.25c-0.87-0.26-1.82-0.44-2.67-0.12c-1.23,0.47-1.88,1.93-1.74,3.24c0.13,1.31,0.89,2.48,1.76,3.47
						C272.14,224.68,273.54,225.77,275.09,226.58z"/>
				</g>
			</g>
			<g>
				<g>
					<rect x="172.04" y="192.53" width="6.07" height="4.51"/>
				</g>
				<g>
					<path class="st5" d="M168.42,200.41c0.15-0.98,0.3-1.98,0.75-2.86c0.43-0.87,1.2-1.62,2.15-1.8h7.53
						c0.95,0.18,1.72,0.93,2.15,1.8c0.44,0.89,0.6,1.88,0.75,2.86c1.17,7.75,2.35,15.5,3.52,23.25c0.21,1.36,0.39,2.86-0.33,4.03
						c-0.5,0.82-1.34,1.29-2.27,1.55H167.5c-0.93-0.26-1.77-0.73-2.27-1.55c-0.72-1.17-0.54-2.67-0.33-4.03
						C166.07,215.91,167.24,208.16,168.42,200.41z"/>
				</g>
				<g>
					<path class="st6" d="M170.48,193.11h9.2v-2.77c0-1.9-1.54-3.44-3.44-3.44h-2.32c-1.9,0-3.44,1.54-3.44,3.44V193.11z"/>
				</g>
			</g>
			<g>
				<g>
					<rect x="156.68" y="192.53" width="6.07" height="4.51"/>
				</g>
				<g>
					<path class="st10" d="M153.06,200.41c0.15-0.98,0.3-1.98,0.75-2.86c0.43-0.87,1.2-1.62,2.15-1.8h7.53
						c0.95,0.18,1.72,0.93,2.15,1.8c0.44,0.89,0.6,1.88,0.75,2.86c1.17,7.75,2.35,15.5,3.52,23.25c0.21,1.36,0.39,2.86-0.34,4.03
						c-0.5,0.82-1.34,1.29-2.27,1.55h-15.16c-0.93-0.26-1.77-0.73-2.27-1.55c-0.72-1.17-0.54-2.67-0.33-4.03
						C150.71,215.91,151.88,208.16,153.06,200.41z"/>
				</g>
				<g>
					<path class="st6" d="M155.12,193.11h9.2v-2.77c0-1.9-1.54-3.44-3.44-3.44h-2.32c-1.9,0-3.44,1.54-3.44,3.44V193.11z"/>
				</g>
			</g>
			<g>
				<g>
					<g>
						<path class="st10" d="M329.09,223.48c2.51-0.73,5.17-0.99,7.78-0.76c0.92,0.08,1.85,0.23,2.65,0.7
							c0.79,0.46,1.43,1.3,1.42,2.22c-0.01,0.92-0.65,1.75-1.45,2.21c-0.8,0.46-1.73,0.62-2.65,0.74c-2.64,0.35-5.39,0.41-7.9-0.47
							c-0.59-0.21-1.18-0.47-1.63-0.91c-0.45-0.43-0.76-1.06-0.67-1.69C326.78,224.39,328.01,223.79,329.09,223.48z"/>
					</g>
					<g>
						<path class="st7" d="M329.22,223.87c1.6-0.41,5.83-0.88,7.5-0.7c0.59,0.07,1.19,0.17,1.71,0.47c0.52,0.3,0.94,0.83,0.95,1.39
							c0.01,0.57-0.39,1.07-0.89,1.34c-0.5,0.27-1.1,0.36-1.68,0.42c-1.68,0.17-5.98,0.52-7.6-0.07c-0.38-0.14-0.76-0.31-1.06-0.59
							c-0.3-0.28-0.5-0.67-0.46-1.05C327.76,224.4,328.54,224.05,329.22,223.87z"/>
					</g>
				</g>
				<g>
					<g>
						<path class="st10" d="M314.05,224.31c1.87-1.83,4.09-3.31,6.5-4.34c0.85-0.36,1.74-0.67,2.66-0.64
							c0.92,0.03,1.87,0.47,2.3,1.28c0.43,0.82,0.25,1.85-0.24,2.63c-0.49,0.78-1.23,1.37-1.98,1.9c-2.16,1.55-4.56,2.9-7.19,3.31
							c-0.62,0.1-1.26,0.14-1.87-0.03c-0.6-0.17-1.17-0.58-1.39-1.17C312.45,226.2,313.25,225.1,314.05,224.31z"/>
					</g>
					<g>
						<path class="st7" d="M314.36,224.59c1.21-1.12,4.72-3.53,6.28-4.16c0.55-0.22,1.13-0.41,1.73-0.39
							c0.6,0.02,1.21,0.29,1.49,0.78c0.28,0.5,0.16,1.13-0.15,1.61c-0.32,0.48-0.8,0.83-1.29,1.16c-1.4,0.95-5.02,3.28-6.73,3.53
							c-0.4,0.06-0.82,0.08-1.21-0.02c-0.39-0.1-0.76-0.35-0.9-0.71C313.32,225.75,313.83,225.07,314.36,224.59z"/>
					</g>
				</g>
				<g>
					<g>
						<path class="st10" d="M322.75,224.31c1.87-1.83,4.09-3.31,6.5-4.34c0.85-0.36,1.74-0.67,2.66-0.64
							c0.92,0.03,1.87,0.47,2.3,1.28c0.43,0.82,0.25,1.85-0.24,2.63c-0.49,0.78-1.23,1.37-1.98,1.9c-2.16,1.55-4.56,2.9-7.19,3.31
							c-0.62,0.1-1.26,0.14-1.87-0.03c-0.6-0.17-1.17-0.58-1.39-1.17C321.15,226.2,321.95,225.1,322.75,224.31z"/>
					</g>
					<g>
						<path class="st7" d="M323.06,224.59c1.21-1.12,4.72-3.53,6.28-4.16c0.55-0.22,1.13-0.41,1.73-0.39
							c0.6,0.02,1.21,0.29,1.49,0.78c0.28,0.5,0.16,1.13-0.15,1.61c-0.32,0.48-0.8,0.83-1.29,1.16c-1.4,0.95-5.02,3.28-6.73,3.53
							c-0.4,0.06-0.82,0.08-1.21-0.02c-0.39-0.1-0.76-0.35-0.9-0.71C322.02,225.75,322.54,225.07,323.06,224.59z"/>
					</g>
				</g>
				<g>
					<g>
						<path class="st10" d="M318.71,224.31c1.87-1.83,4.09-3.31,6.5-4.34c0.85-0.36,1.74-0.67,2.66-0.64
							c0.92,0.03,1.87,0.47,2.3,1.28c0.43,0.82,0.25,1.85-0.24,2.63c-0.49,0.78-1.23,1.37-1.98,1.9c-2.16,1.55-4.56,2.9-7.19,3.31
							c-0.62,0.1-1.26,0.14-1.87-0.03c-0.6-0.17-1.17-0.58-1.39-1.17C317.1,226.2,317.9,225.1,318.71,224.31z"/>
					</g>
					<g>
						<path class="st7" d="M319.01,224.59c1.21-1.12,4.72-3.53,6.28-4.16c0.55-0.22,1.13-0.41,1.73-0.39
							c0.6,0.02,1.21,0.29,1.49,0.78c0.28,0.5,0.16,1.13-0.15,1.61c-0.32,0.48-0.8,0.83-1.29,1.16c-1.4,0.95-5.02,3.28-6.73,3.53
							c-0.4,0.06-0.82,0.08-1.21-0.02c-0.39-0.1-0.76-0.35-0.9-0.71C317.97,225.75,318.49,225.07,319.01,224.59z"/>
					</g>
				</g>
			</g>
			<g>
				<g>
					<path class="st5" d="M199.41,228.9c-5.69-1.25-10.36-6.23-11.27-11.98c-0.37-2.32-0.12-4.84,1.24-6.75
						c1.36-1.91,4.02-2.99,6.17-2.06c2.05-3.66,6.87-5.13,10.96-4.19c4.09,0.94,7.48,3.83,10.07,7.13c1.6,2.04,2.99,4.32,3.57,6.85
						c0.58,2.53,0.27,5.35-1.26,7.45c-1.49,2.05-4.04,3.21-6.57,3.29c-1.39,0.04-2.47-0.02-3.5-0.33c-1.4-0.42-2.9-0.4-4.28,0.07
						c-0.45,0.15-0.92,0.27-1.33,0.38C201.97,229.11,200.66,229.17,199.41,228.9z"/>
				</g>
				<path d="M194.07,210.38c-0.74-0.51-1.66-0.75-2.55-0.66c1.08-0.78,2.45-1.15,3.78-1.03c-0.63-0.89-1.14-1.87-1.4-2.93
					c-0.32-1.28-0.25-2.68,0.32-3.87c0.54,0.03,1.08,0.06,1.63,0.09c-0.3,1.31-0.58,2.65-0.42,3.98c0.1,0.84,0.4,1.68,0.91,2.35
					c0.6-1.05,1.5-1.94,2.58-2.48c1.26-0.63,2.73-0.8,4.1-0.49c-2.05,0.4-3.6,2.28-4.02,4.33c-0.42,2.04,0.16,4.19,1.16,6.02
					c-0.9-1.69-2.61-2.93-4.5-3.24c-1.89-0.31-3.91,0.3-5.31,1.62C190.5,212.17,192.17,210.52,194.07,210.38z"/>
			</g>
			<g>
				<g>
					<path class="st5" d="M406.55,208.17l-27.66-1.52v-3.13h32.51v0.05C411.41,206.22,409.19,208.32,406.55,208.17z"/>
				</g>
				<g>
					<path class="st10" d="M356.75,228.79h18.44c6.15,0,10.97-5.3,10.38-11.43l-1.44-14.97h-36.31l-1.44,14.97
						C345.78,223.49,350.6,228.79,356.75,228.79z"/>
				</g>
				<g>
					<path d="M381.75,226.45c-1.79,1.45-4.06,2.34-6.56,2.34h-18.44c-2.5,0-4.78-0.89-6.56-2.34H381.75z"/>
				</g>
				<g>
					<path class="st6" d="M382.63,215.42c-0.47,0.42-1.18,0.51-1.79,0.34c-0.61-0.17-1.13-0.57-1.57-1.02
						c-1.25-1.3-1.9-3.08-2.16-4.86c-0.16-1.13-0.18-2.3,0.17-3.38c0.35-1.08,1.12-2.07,2.18-2.48c0.53-0.21,1.17-0.25,1.63,0.07
						c0.44,0.31,0.62,0.86,0.77,1.37c0.68,2.4,1.14,4.86,1.37,7.34C383.33,213.73,383.33,214.8,382.63,215.42z"/>
				</g>
				<g>
					<path class="st6" d="M383.4,219.17c0.11,0.5,0.21,1.03,0.07,1.52c-0.14,0.49-0.62,0.93-1.12,0.84
						c-0.52-0.09-0.8-0.65-0.99-1.15c-0.22-0.57-0.45-1.17-0.36-1.78c0.09-0.61,0.62-1.19,1.23-1.11
						C382.95,217.58,383.25,218.45,383.4,219.17z"/>
				</g>
			</g>
			<g>
				<g>
					<path class="st10" d="M219.2,227c-2.29-1.71-3.72-4.33-4.81-6.97c-1.74-4.22-2.74-9.22-0.53-13.21
						c1.92-3.48,6.09-5.43,10.05-5.14c3.96,0.29,7.63,2.61,10,5.8c2.34,3.15,3.51,7.2,2.92,11.07c-0.59,3.87-3.01,7.49-6.5,9.26
						C226.84,229.59,222.34,229.35,219.2,227z"/>
				</g>
				<g>
					<path class="st7" d="M217.74,208.1c0.35-0.03,0.72-0.01,1.02-0.18c0.63-0.34,0.68-1.24,0.51-1.93c-0.18-0.7-0.5-1.41-0.32-2.11
						c0.3,0.49,0.66,1.03,1.23,1.13c0.48,0.08,0.94-0.17,1.36-0.42c1.36-0.8,2.83-1.59,4.41-1.55c-1.52,0.87-2.7,2.31-3.27,3.96
						c0.73-0.75,1.75-1.19,2.79-1.21c1.04-0.02,2.09,0.38,2.84,1.1c-1.72-0.97-4.06-0.36-5.35,1.13c-1.29,1.5-1.6,3.68-1.12,5.59
						c-0.66-0.68-0.93-1.66-1.61-2.32c-0.82-0.79-2.09-0.97-3.2-0.71c-1.11,0.25-2.1,0.87-3.06,1.49
						C214.01,210.06,215.74,208.25,217.74,208.1z"/>
				</g>
			</g>
		</g>
	</g>
</g>
</svg>
